<svg width="115" height="25" viewBox="0 0 115 25" fill="none" xmlns="http://www.w3.org/2000/svg">
<path d="M25.9385 21.368C25.9385 21.1191 25.8887 20.8453 25.8389 20.5964C25.7642 20.3723 25.7144 20.1483 25.6149 19.9242C24.0466 15.6177 19.2672 13.4023 14.9607 14.9705C13.3675 15.5431 11.9735 16.6135 11.0027 18.0075C14.2139 16.7628 17.8234 18.3311 19.068 21.5423C19.1178 21.6916 19.1925 21.841 19.2174 21.9904C19.2423 22.0401 19.2423 22.1148 19.2671 22.1646C19.292 22.2144 19.2921 22.2891 19.317 22.3389C19.6157 23.2848 20.3127 24.0565 21.2337 24.4548C21.6071 24.6041 22.0054 24.6788 22.3788 24.6788H22.6526C23.0509 24.6788 23.4492 24.6041 23.8226 24.4548C25.117 23.9569 25.9385 22.7372 25.9385 21.368Z" fill="#E2E2E2"/>
<path d="M12.1727 0.482805C8.78721 2.9721 5.45155 8.34899 3.21118 12.5559C7.66703 7.82624 14.4628 6.08372 20.6363 8.10005C19.4165 5.51118 15.5083 -1.95671 12.1727 0.482805Z" fill="#E2E2E2"/>
<path d="M3.21118 12.5807C7.66703 7.851 14.4628 6.10849 20.6363 8.12482C20.3127 7.42782 19.8148 6.40721 19.1676 5.33682C19.1676 5.31192 11.1272 2.64837 3.21118 12.5807Z" fill="#D6D6D6"/>
<path d="M15.4337 8.87158C8.68765 8.87158 2.63864 13.0785 0.298704 19.4013C0.199132 19.6254 0.124447 19.8494 0.0746607 20.0983C0.0248748 20.3224 0 20.5464 0 20.7704C0 22.513 1.394 23.907 3.13651 23.907C4.35627 23.907 5.45157 23.21 5.97432 22.1147C6.07389 21.9155 6.14855 21.6915 6.19833 21.4675C8.7872 14.4974 16.5289 10.9377 23.4741 13.5266C26.5857 14.6717 29.1497 16.9369 30.693 19.8494C28.4776 13.2777 22.329 8.87158 15.4337 8.87158Z" fill="url(#paint0_linear_1_3228)"/>
<path d="M24.7685 18.3062C22.3041 14.4477 17.201 13.3276 13.3426 15.7671C12.4216 16.3645 11.625 17.1362 11.0027 18.0323C12.1975 17.5594 13.492 17.4847 14.7366 17.8083C16.28 16.4392 20.2131 13.9001 24.7685 18.3062Z" fill="#D6D6D6"/>
<path d="M53.993 18.5798C53.4204 18.555 52.8479 18.5052 52.2754 18.4305V20.5962C52.2754 21.6168 51.4539 22.4383 50.4333 22.4383H49.338C49.089 22.4383 48.8899 22.2391 48.8899 21.9902V8.79692C48.8899 8.47331 48.9646 8.32394 49.5371 8.19948C50.732 7.90076 52.35 6.25781 53.9681 6.25781C56.8805 6.25781 59.2205 8.67244 59.2205 11.5849V13.203C59.2205 16.5137 57.5278 18.5798 53.993 18.5798ZM55.8599 11.0373C55.8599 9.96689 54.9887 9.07073 53.8934 9.07073H53.8187C52.9724 9.07073 52.2754 9.76775 52.2754 10.639V15.6923C52.8479 15.7669 53.4204 15.8167 53.993 15.8167C55.4616 15.8167 55.8599 14.7215 55.8599 13.2528V11.0373Z" fill="#474747"/>
<path d="M66.4395 18.5798C65.8669 18.5549 65.2944 18.5052 64.7468 18.4305V20.5962C64.7468 21.6168 63.9253 22.4383 62.8798 22.4632H61.8094C61.5605 22.4632 61.3613 22.264 61.3613 22.0151V8.82179C61.3613 8.49818 61.436 8.34881 62.0085 8.22435C63.2034 7.92563 64.8214 6.28271 66.4395 6.28271C69.352 6.28271 71.6919 8.69734 71.6919 11.6347V13.2528C71.6919 16.5137 69.9743 18.5798 66.4395 18.5798ZM68.3064 11.0622C68.3064 9.96687 67.4103 9.07072 66.315 9.07072H66.2901C65.4189 9.07072 64.7219 9.76773 64.7219 10.639V15.6674C65.2944 15.742 65.8669 15.7918 66.4146 15.7918C67.8833 15.7918 68.2816 14.6965 68.2816 13.2278L68.3064 11.0622Z" fill="#474747"/>
<path d="M77.7159 18.5797C76.4464 18.5797 75.1768 18.4304 73.9322 18.1317C73.7081 18.1068 73.5339 17.8828 73.5339 17.6587V15.966C73.5339 15.7668 73.6832 15.5677 73.9073 15.5677H74.0317C75.1519 15.7171 76.8944 15.8664 77.5666 15.8664C78.5872 15.8664 78.7863 15.5926 78.7863 15.0698C78.7863 14.7462 78.5872 14.5222 78.0146 14.1986L75.3013 12.6303C74.1313 11.9582 73.4343 10.9127 73.4343 9.54361C73.4343 7.42771 74.8283 6.30752 77.7159 6.30752C78.9606 6.28263 80.2301 6.45689 81.425 6.78049C81.649 6.80539 81.8233 7.0294 81.8233 7.25344V8.94617C81.8481 9.14532 81.7237 9.31956 81.5245 9.34445C81.4997 9.34445 81.4996 9.34445 81.4747 9.34445H81.4001C80.255 9.1951 79.1099 9.09553 77.94 9.07064C77.1434 9.07064 76.8447 9.19511 76.8447 9.66808C76.8447 9.99168 77.0687 10.141 77.4919 10.39L80.0559 11.8586C81.7984 12.8793 82.1718 13.9497 82.1718 15.0698C82.1718 17.0364 80.7529 18.5797 77.7159 18.5797Z" fill="#474747"/>
<path d="M93.9711 13.4768H87.3247V13.5266C87.3247 14.7214 87.8225 15.7918 89.4655 15.7918C90.7848 15.7918 92.6269 15.6922 93.4733 15.5927H93.5479C93.772 15.5927 93.9462 15.7669 93.9462 15.991V17.5094C93.9462 17.8331 93.8716 17.9824 93.4982 18.082C92.1041 18.4305 90.6603 18.6047 89.2165 18.5798C86.7023 18.5798 83.989 17.2356 83.989 13.2278V11.7592C83.989 8.39862 85.9556 6.28271 89.2663 6.28271C92.7016 6.28271 94.4192 8.62266 94.4192 11.7592V12.9789C94.4192 13.2776 94.245 13.4768 93.9711 13.4768ZM91.1084 11.2862C91.1084 9.74283 90.4114 8.97114 89.2415 8.97114C88.0715 8.97114 87.3247 9.76773 87.3247 11.2862V11.3609H91.1084V11.2862Z" fill="#474747"/>
<path d="M109.753 18.5798C106.368 18.5798 104.526 16.464 104.526 13.1532V11.6845C104.526 8.37373 106.393 6.25781 109.753 6.25781C113.114 6.25781 114.956 8.37373 114.956 11.6845V13.1532C114.981 16.464 113.139 18.5798 109.753 18.5798ZM111.62 11.7094C111.62 10.0167 110.973 9.17031 109.753 9.17031C108.533 9.17031 107.861 10.0167 107.861 11.7094V13.1781C107.861 14.8708 108.533 15.7421 109.728 15.7421C110.923 15.7421 111.595 14.8708 111.595 13.1781V11.7094H111.62Z" fill="#474747"/>
<path d="M102.733 6.28271C101.738 6.28271 100.767 6.6312 99.9702 7.22863C99.9453 7.25352 99.9452 7.25354 99.9204 7.27843V6.88012C99.9204 6.75566 99.8706 6.63121 99.771 6.55653C99.6963 6.50675 99.6216 6.48184 99.547 6.48184C99.4972 6.48184 99.4474 6.48183 99.3976 6.50673L99.3478 6.53164C98.5762 6.97972 97.8543 7.47758 97.2319 7.65183C96.759 7.7514 96.6345 7.87584 96.5847 8.12477V17.9824C96.5847 18.2314 96.7838 18.4305 97.0328 18.4305H98.1032C99.074 18.4305 99.8955 17.6837 99.9702 16.7129V9.84239C100.792 9.36943 101.713 9.12049 102.659 9.12049H102.833C103.007 9.12049 103.156 8.97115 103.156 8.7969V6.73077C103.132 6.45695 102.957 6.28271 102.733 6.28271Z" fill="#474747"/>
<path d="M46.1515 18.4305H43.8116C43.5876 18.4305 43.3884 18.2314 43.3884 18.0073V17.6837C42.5421 18.3309 41.5215 18.6545 40.476 18.6296C38.6588 18.6296 36.8914 17.7584 36.8914 15.0202V14.821C36.8914 12.3815 38.4596 11.2862 42.0442 11.2862H43.1644V10.5394C43.1644 9.34456 42.5919 9.09562 41.5961 9.09562C40.2519 9.09562 38.7832 9.17029 38.1111 9.24497H38.0115C37.8124 9.26986 37.663 9.12052 37.6381 8.94627C37.6381 8.92138 37.6381 8.89647 37.6381 8.87158V7.17887C37.6381 6.95483 37.8124 6.75568 38.0364 6.7059C39.2313 6.43208 40.451 6.28271 41.6708 6.25781C44.6829 6.25781 46.5747 7.47759 46.5747 10.5394V18.0073C46.5747 18.2563 46.4005 18.4305 46.1515 18.4305ZM43.2391 13.3025H42.0442C40.5755 13.3025 40.2021 13.8004 40.2021 14.821V15.0202C40.2021 15.8914 40.6502 16.0657 41.5214 16.0657C42.1189 16.0408 42.7163 15.8914 43.2391 15.6176V13.3025Z" fill="#474747"/>
<defs>
<linearGradient id="paint0_linear_1_3228" x1="25.0947" y1="11.9849" x2="2.10838" y2="25.0313" gradientUnits="userSpaceOnUse">
<stop stop-color="#907CFF"/>
<stop offset="1" stop-color="#6EBCFF"/>
</linearGradient>
</defs>
</svg>
