<svg width="107" height="30" viewBox="0 0 107 30" fill="none" xmlns="http://www.w3.org/2000/svg">
<path d="M105.189 10.684C104.639 10.1382 103.99 9.70593 103.257 9.40119C102.524 9.08699 101.733 8.92871 100.906 8.92871C100.139 8.92871 99.3888 9.06573 98.6797 9.33976C97.9779 9.60435 97.3413 9.98942 96.7842 10.4855L96.6009 10.6485L95.3227 9.20038H94.8018V21.0619C94.8018 21.9052 95.5036 22.5927 96.3645 22.5927C97.2255 22.5927 97.9273 21.9052 97.9273 21.0619V14.9055C97.9273 14.511 98.0045 14.1354 98.1588 13.7881C98.3107 13.4361 98.523 13.1219 98.7907 12.8597C99.0584 12.5975 99.3767 12.3896 99.7409 12.2384C100.105 12.0896 100.496 12.0116 100.906 12.0116C101.306 12.0116 101.69 12.0872 102.046 12.2384C102.399 12.3872 102.714 12.5975 102.98 12.8573C103.247 13.1196 103.46 13.4314 103.614 13.7881C103.766 14.1354 103.846 14.511 103.846 14.9032V21.0619C103.846 21.9052 104.547 22.5927 105.408 22.5927C106.269 22.5927 106.971 21.9052 106.971 21.0619V14.9055C106.971 14.0881 106.81 13.3086 106.489 12.5928C106.173 11.8604 105.736 11.2202 105.189 10.684Z" fill="black"/>
<path d="M88.3023 9.95872C87.9357 9.69886 87.5426 9.47207 87.135 9.27836C86.7275 9.08701 86.303 8.93581 85.8713 8.82715C85.4444 8.72084 85.0055 8.6665 84.569 8.6665C83.6092 8.6665 82.6951 8.84368 81.8462 9.19095C81.007 9.53113 80.2593 10.0201 79.6226 10.6415C78.9956 11.2628 78.494 12.0211 78.1298 12.8952C77.7632 13.7598 77.58 14.7284 77.58 15.7702C77.58 16.8899 77.7657 17.901 78.1298 18.7751C78.494 19.6468 78.9956 20.3957 79.6226 21.0005C80.2545 21.5958 81.0021 22.0588 81.839 22.373C82.6879 22.6896 83.6067 22.8502 84.569 22.8502C85.0031 22.8502 85.4372 22.7959 85.8568 22.6896C86.2885 22.5809 86.7154 22.4344 87.1254 22.2502C87.533 22.0588 87.9236 21.8344 88.2902 21.584C88.6689 21.3241 89.0282 21.043 89.3634 20.7477L89.5636 20.5729L91.0492 22.5904H91.558V9.22402H91.0395L89.5467 10.9769L89.361 10.8045C89.033 10.5021 88.6785 10.2162 88.3023 9.95872ZM88.0949 17.2726C87.8995 17.7451 87.627 18.1727 87.2845 18.546C86.9397 18.9121 86.5273 19.2122 86.0642 19.4413C85.5988 19.6634 85.0972 19.7768 84.569 19.7768C84.0481 19.7768 83.5489 19.6894 83.081 19.5145C82.618 19.3397 82.208 19.0775 81.8583 18.735C81.5182 18.3924 81.2457 17.9695 81.0504 17.4758C80.855 16.975 80.7561 16.4033 80.7561 15.7725C80.7561 15.1418 80.855 14.5724 81.0504 14.0811C81.2457 13.5802 81.5158 13.1527 81.8559 12.8101C82.2056 12.4676 82.618 12.2053 83.0786 12.0305C83.5464 11.8557 84.0457 11.7683 84.5666 11.7683C85.0972 11.7683 85.6012 11.8864 86.0642 12.1179C86.5273 12.3353 86.9373 12.6377 87.2845 13.0109C87.627 13.3724 87.8995 13.8023 88.0973 14.2866C88.2999 14.7591 88.406 15.2599 88.406 15.7725C88.4036 16.2852 88.2999 16.7907 88.0949 17.2726Z" fill="black"/>
<path d="M72.2719 14.7403L74.9705 11.4188C75.3033 11.0101 75.366 10.462 75.1345 9.98957C74.903 9.5171 74.4255 9.22416 73.8901 9.22416C73.4656 9.22416 73.0701 9.41079 72.8072 9.73916L67.4847 16.3491V7.8658C67.4847 7.01534 66.7781 6.3208 65.9074 6.3208C65.0368 6.3208 64.3302 7.01298 64.3302 7.8658V21.3904C64.3302 22.0542 64.8801 22.5929 65.5577 22.5929C65.9291 22.5929 66.2788 22.4298 66.5128 22.1464L67.5353 20.9061L70.2653 17.3602L72.8 21.8109C73.0749 22.2928 73.5959 22.5929 74.1602 22.5929C74.7221 22.5929 75.2238 22.3094 75.5059 21.8345C75.7881 21.3597 75.7905 20.7904 75.5132 20.3132L72.2719 14.7403Z" fill="black"/>
<path d="M59.666 10.6178C59.039 9.99652 58.2938 9.51223 57.4473 9.1815C56.6056 8.84132 55.6892 8.6665 54.7221 8.6665C53.7646 8.6665 52.8482 8.84841 52.0017 9.20513C51.1624 9.56184 50.4148 10.0627 49.7781 10.6958C49.1511 11.3195 48.6471 12.0731 48.2829 12.9377C47.9187 13.8023 47.733 14.7567 47.733 15.7725C47.733 16.7718 47.9187 17.7168 48.2829 18.5814C48.6471 19.4389 49.1511 20.1925 49.7805 20.8257C50.4148 21.447 51.1649 21.9502 52.0065 22.314C52.8506 22.6707 53.7671 22.8502 54.7245 22.8502C55.6916 22.8502 56.6056 22.6683 57.4449 22.3116C58.2938 21.9454 59.0414 21.4446 59.6684 20.8209C60.2955 20.1902 60.7995 19.4366 61.1637 18.579C61.5278 17.7144 61.7135 16.7695 61.7135 15.7702C61.7135 14.7024 61.5278 13.722 61.1637 12.8574C60.7947 11.9856 60.2931 11.232 59.666 10.6178ZM58.2504 17.4026C58.055 17.8939 57.7801 18.3215 57.4328 18.6712C57.0855 19.0208 56.6707 19.2948 56.2028 19.4886C55.7446 19.6823 55.2454 19.7791 54.7221 19.7791C54.1963 19.7791 53.6923 19.6775 53.2244 19.4744C52.7638 19.2618 52.3562 18.9736 52.0089 18.6168C51.6713 18.2578 51.4012 17.8325 51.2058 17.3506C51.0105 16.8687 50.9116 16.3371 50.9116 15.7749C50.9116 15.1772 51.0105 14.6291 51.2058 14.1472C51.4012 13.6558 51.6713 13.2283 52.0089 12.881C52.3562 12.5219 52.7686 12.2455 53.2292 12.0612C54.1626 11.6762 55.284 11.6762 56.2053 12.0636C56.6707 12.2455 57.0855 12.5219 57.4352 12.881C57.7801 13.2283 58.055 13.6558 58.2528 14.1496C58.4554 14.6291 58.5591 15.1772 58.5591 15.7773C58.5591 16.3608 58.4554 16.9088 58.2504 17.4026Z" fill="black"/>
<path d="M43.691 6.3208C42.8228 6.3208 42.1138 7.01298 42.1138 7.8658V10.6817L41.6748 10.0557C41.4988 9.80531 41.2793 9.59033 41.0237 9.41788C40.7608 9.2407 40.4738 9.09659 40.1676 8.99265C39.8613 8.87689 39.5453 8.79421 39.2198 8.7446C38.899 8.69499 38.5807 8.669 38.2792 8.669C37.3218 8.669 36.4053 8.85091 35.5588 9.20763C34.7196 9.56434 33.9719 10.0652 33.3353 10.6983C32.7082 11.329 32.2042 12.0874 31.84 12.952C31.4759 13.8143 31.2902 14.7639 31.2902 15.7727C31.2902 16.7885 31.4759 17.7429 31.84 18.6075C32.2066 19.4651 32.7082 20.2187 33.3377 20.8518C33.9719 21.4731 34.722 21.9716 35.5612 22.3283C36.4077 22.6755 37.3218 22.8527 38.2816 22.8527C38.7181 22.8527 39.1498 22.7984 39.5695 22.6921C40.0036 22.5834 40.4304 22.4369 40.838 22.2527C41.2456 22.0613 41.6387 21.8369 42.0028 21.5865C42.3791 21.3266 42.7408 21.0455 43.076 20.7502L43.2762 20.5754L44.7618 22.5929H45.2707V7.8658C45.2683 7.01298 44.5616 6.3208 43.691 6.3208ZM41.8075 17.2751C41.6121 17.7476 41.3396 18.1752 40.9972 18.5485C40.6523 18.9146 40.2399 19.2147 39.7769 19.4438C39.3114 19.6659 38.8098 19.7793 38.2816 19.7793C37.7559 19.7793 37.2494 19.6706 36.7791 19.4603C36.3209 19.2501 35.9133 18.9572 35.5661 18.591C35.2284 18.2248 34.9607 17.7949 34.7654 17.3129C34.57 16.8287 34.4712 16.3113 34.4712 15.775C34.4712 15.1608 34.57 14.6009 34.7654 14.1096C34.9607 13.6158 35.2333 13.193 35.5709 12.8528C35.9182 12.5031 36.3282 12.2315 36.7888 12.0472C37.2567 11.8629 37.7583 11.7708 38.2816 11.7708C38.8122 11.7708 39.3162 11.8889 39.7793 12.1204C40.2423 12.3378 40.6523 12.6378 40.9996 13.0134C41.342 13.3772 41.617 13.8072 41.8123 14.2891C42.0173 14.7616 42.121 15.2624 42.121 15.775C42.1162 16.2853 42.0125 16.7909 41.8075 17.2751Z" fill="black"/>
<path d="M16.9906 13.9463C16.9705 18.9485 14.8366 24.1127 10.4279 26.4619C7.3277 28.1225 0 29.3984 0 23.9912C0 23.9912 0 3.88117 0 3.86092C0 0.863659 2.51638 -0.128677 5.03276 0.0130849C8.77714 0.215603 12.3605 1.97751 14.5346 5.21779C15.9237 7.28347 16.6886 9.77444 16.9302 12.2857C16.9503 12.8527 16.9906 13.3995 16.9906 13.9463Z" fill="url(#paint0_linear_1_3221)"/>
<path d="M23.9356 12.184C23.5129 8.05266 20.9965 4.5896 17.5138 2.50367C15.1987 1.1063 12.2999 0.762023 10.79 3.55677C10.79 3.57702 0.623869 22.3706 0.623869 22.3706C-0.261898 24.011 -0.0605859 25.3679 0.744656 26.4818C1.95252 28.1424 4.34811 28.8917 6.30082 29.0942C8.11261 29.2968 9.94454 29.0942 11.6959 28.6892C16.9904 27.4741 21.6809 23.849 23.2713 18.5836C23.8954 16.5179 24.1571 14.351 23.9356 12.184Z" fill="url(#paint1_linear_1_3221)"/>
<path d="M10.4277 26.4822C14.8364 24.1127 16.9703 18.9485 16.9905 13.9666C16.9905 13.4198 16.9703 12.873 16.9099 12.3262C16.6885 9.81495 15.9034 7.32398 14.5143 5.2583C13.7494 4.10395 12.8032 3.15212 11.7363 2.3623C11.394 2.66608 11.0719 3.07112 10.8102 3.57741C10.8102 3.59766 0.644056 22.3913 0.644056 22.3913C-0.0202682 23.6064 -0.060534 24.6797 0.281694 25.6113C0.281694 25.6316 0.301826 25.6518 0.301826 25.6721C0.321957 25.7126 0.342086 25.7733 0.362217 25.8138C0.382348 25.8543 0.38235 25.8746 0.402481 25.9151C0.402481 25.9354 0.422614 25.9556 0.422614 25.9556C2.01297 29.0339 7.77044 27.8998 10.4277 26.4822Z" fill="#E23B7B"/>
<defs>
<linearGradient id="paint0_linear_1_3221" x1="8.45228" y1="8.26002" x2="8.45228" y2="17.0059" gradientUnits="userSpaceOnUse">
<stop stop-color="#7047EB"/>
<stop offset="1" stop-color="#A244FF"/>
</linearGradient>
<linearGradient id="paint1_linear_1_3221" x1="20.2873" y1="4.48687" x2="8.20061" y2="27.7652" gradientUnits="userSpaceOnUse">
<stop stop-color="#FF9B53"/>
<stop offset="1" stop-color="#FF698F"/>
</linearGradient>
</defs>
</svg>
