<svg width="98" height="30" viewBox="0 0 98 30" fill="none" xmlns="http://www.w3.org/2000/svg">
<g clip-path="url(#clip0_1_3225)">
<path d="M92.9194 13.9522C92.4234 14.3629 91.7274 14.5671 90.8323 14.5671H88.4271L89.2676 10.3818H91.3908C92.1062 10.3818 92.6639 10.5227 93.0639 10.8028C93.463 11.0828 93.6626 11.5312 93.6626 12.147C93.6626 12.9401 93.415 13.5415 92.9194 13.9522ZM96.2761 8.3912C95.2634 7.5851 93.8137 7.18115 91.9278 7.18115H85.8122L82.9202 21.5437H87.0104L87.7773 17.7892H90.6464C92.1062 17.7892 93.3696 17.5424 94.437 17.0505C95.5043 16.5581 96.3307 15.8602 96.9171 14.9571C97.5016 14.055 97.7946 13.002 97.7946 11.7978C97.7946 10.3346 97.2884 9.19909 96.2761 8.3912ZM80.5904 7.18115L77.3804 13.9854L73.8783 7.52406L70.3516 13.9015L69.2631 10.3467L66.9587 14.2296L69.2256 21.4966L73.8783 13.9015L77.7244 21.5437L84.1625 7.18115H80.5904Z" fill="#6A6AFF"/>
<path d="M40.2453 10.0284H44.22C46.1023 10.0284 47.7234 8.65002 48.0952 6.73352H36.8049L33.9204 21.7114H37.9996L38.9863 16.5763H42.1175C43.9892 16.5763 45.6015 15.207 45.9728 13.3021H39.6162L40.2453 10.0279V10.0284ZM49.2454 9.82191L46.9618 21.7119H50.8761L53.9254 5.83496C51.6497 5.83496 49.6903 7.50416 49.2454 9.82191ZM65.5597 10.093C64.3109 10.093 63.1537 10.7743 62.5118 11.8874L59.4489 17.202L58.5177 12.4844C58.2428 11.0921 57.0631 10.093 55.6953 10.093H54.1725L56.1517 19.3281C56.2213 19.6588 56.3728 19.9658 56.5917 20.22C56.8106 20.4742 57.0896 20.6672 57.4023 20.7805L54.387 26.0323H58.0367L62.5629 18.2999L67.3993 10.093H65.5597Z" fill="#1C1C1C"/>
<path d="M21.0398 11.1512L14.6506 21.3158C14.3044 21.9738 13.337 21.8149 13.2106 21.0793L12.6159 17.8051C12.4962 17.1449 12.5659 16.4635 12.8168 15.8426C13.0677 15.2218 13.4891 14.688 14.0304 14.3051C14.0848 14.2657 14.1234 14.2076 14.139 14.1415C14.1547 14.0755 14.1464 14.0058 14.1156 13.9455C14.0849 13.8852 14.0338 13.8382 13.9718 13.8132C13.9097 13.7882 13.8409 13.7869 13.778 13.8096C13.1526 14.0427 12.4736 14.0819 11.8264 13.9222C11.1792 13.7626 10.5929 13.4112 10.1416 12.9124L8.63104 11.2441C8.17511 10.74 8.52576 9.92452 9.19886 9.92452H20.3808C20.9993 9.92452 21.3728 10.6207 21.0398 11.1512ZM7.20334 17.9375C7.09322 17.9375 6.98397 17.933 6.87516 17.9267C7.33354 17.0573 8.01465 16.3308 8.84603 15.8244C9.67741 15.3181 10.628 15.0508 11.5966 15.051C11.7067 15.051 11.8164 15.0555 11.9252 15.0627C11.4666 15.932 10.7854 16.6584 9.95398 17.1647C9.12253 17.671 8.17196 17.9378 7.20334 17.9375ZM14.3176 0C6.4113 0 0.000976562 6.53047 0.000976562 14.587C0.000976562 22.6434 6.4113 29.1739 14.3176 29.1739C22.2248 29.1739 28.6342 22.6434 28.6342 14.587C28.6342 6.53047 22.2248 0 14.3176 0Z" fill="#6A6AFF"/>
</g>
<defs>
<clipPath id="clip0_1_3225">
<rect width="97.7326" height="29.1739" fill="white"/>
</clipPath>
</defs>
</svg>
