<svg width="104" height="20" viewBox="0 0 104 20" fill="none" xmlns="http://www.w3.org/2000/svg">
<path d="M29.4043 3.99818C29.4043 3.74129 29.4886 3.52855 29.6572 3.35997C29.8258 3.19942 30.0345 3.11914 30.2833 3.11914C30.5402 3.11914 30.7489 3.19942 30.9095 3.35997C31.0781 3.52855 31.1624 3.74129 31.1624 3.99818V15.4136C31.1624 15.6544 31.0781 15.8591 30.9095 16.0277C30.7489 16.1963 30.5402 16.2806 30.2833 16.2806C30.0345 16.2806 29.8258 16.1963 29.6572 16.0277C29.4886 15.8591 29.4043 15.6544 29.4043 15.4136V3.99818ZM38.9412 6.98449C39.7199 6.98449 40.4183 7.15307 41.0365 7.49024C41.6546 7.8274 42.1363 8.31709 42.4815 8.95931C42.8347 9.60956 43.0113 10.3882 43.0113 11.2954V15.4377C43.0113 15.6866 42.931 15.8913 42.7705 16.0518C42.6019 16.2204 42.3932 16.3047 42.1443 16.3047C41.9035 16.3047 41.6988 16.2204 41.5302 16.0518C41.3696 15.8913 41.2893 15.6866 41.2893 15.4377V11.2954C41.2893 10.3882 41.0445 9.69786 40.5548 9.22423C40.0651 8.75862 39.4149 8.52582 38.6041 8.52582C38.1385 8.52582 37.709 8.62215 37.3156 8.81481C36.9303 9.00748 36.6293 9.26838 36.4125 9.59752C36.1877 9.91863 36.0753 10.2839 36.0753 10.6933V15.4377C36.0753 15.6866 35.9991 15.8913 35.8465 16.0518C35.686 16.2204 35.4773 16.3047 35.2204 16.3047C34.9715 16.3047 34.7668 16.2204 34.6063 16.0518C34.4457 15.8913 34.3654 15.6866 34.3654 15.4377V7.92374C34.3654 7.66685 34.4457 7.45813 34.6063 7.29757C34.7668 7.14505 34.9715 7.06878 35.2204 7.06878C35.4773 7.06878 35.686 7.14505 35.8465 7.29757C35.9991 7.45813 36.0753 7.66685 36.0753 7.92374V8.10436C36.4366 7.75114 36.8661 7.47418 37.3638 7.27349C37.8535 7.08082 38.3793 6.98449 38.9412 6.98449ZM46.7201 3.11914C46.4632 3.11914 46.2545 3.19942 46.0939 3.35997C45.9334 3.5125 45.8531 3.71721 45.8531 3.97409V11.6687C45.8531 12.5437 46.0618 13.3384 46.4793 14.0529C46.8887 14.7674 47.4426 15.3293 48.141 15.7387C48.8475 16.1481 49.6302 16.3529 50.4891 16.3529C51.3561 16.3529 52.1469 16.1481 52.8613 15.7387C53.5758 15.3293 54.1337 14.7674 54.5351 14.0529C54.9445 13.3384 55.1492 12.5437 55.1492 11.6687C55.1492 10.7936 54.9606 9.9989 54.5833 9.28444C54.206 8.56997 53.6882 8.00803 53.0299 7.59861C52.3716 7.19723 51.6371 6.99653 50.8263 6.99653C50.176 6.99653 49.57 7.133 49.008 7.40595C48.4461 7.67086 47.9684 8.04415 47.5751 8.52582V3.97409C47.5751 3.71721 47.4948 3.5125 47.3342 3.35997C47.1737 3.19942 46.969 3.11914 46.7201 3.11914ZM50.4891 14.8356C49.9272 14.8356 49.4214 14.6991 48.9719 14.4262C48.5143 14.1452 48.1571 13.7639 47.9002 13.2822C47.6433 12.8006 47.5149 12.2627 47.5149 11.6687C47.5149 11.0746 47.6433 10.5368 47.9002 10.0551C48.1571 9.58146 48.5143 9.20416 48.9719 8.92319C49.4214 8.65025 49.9272 8.51377 50.4891 8.51377C51.0511 8.51377 51.5608 8.65025 52.0184 8.92319C52.476 9.20416 52.8372 9.58146 53.1022 10.0551C53.3671 10.5368 53.4995 11.0746 53.4995 11.6687C53.4995 12.2627 53.3671 12.8006 53.1022 13.2822C52.8372 13.7639 52.476 14.1452 52.0184 14.4262C51.5608 14.6991 51.0511 14.8356 50.4891 14.8356ZM61.8925 6.99653C62.7756 6.99653 63.5703 7.19723 64.2767 7.59861C64.9752 7.99197 65.5251 8.54589 65.9264 9.26035C66.3278 9.96679 66.5285 10.7736 66.5285 11.6807C66.5285 12.5798 66.3318 13.3826 65.9385 14.089C65.5451 14.8035 64.9952 15.3574 64.2888 15.7508C63.5904 16.1522 62.7916 16.3529 61.8925 16.3529C60.9934 16.3529 60.1906 16.1522 59.4842 15.7508C58.7697 15.3574 58.2158 14.8035 57.8225 14.089C57.4291 13.3826 57.2324 12.5798 57.2324 11.6807C57.2324 10.7736 57.4291 9.96679 57.8225 9.26035C58.2158 8.54589 58.7697 7.99197 59.4842 7.59861C60.1906 7.19723 60.9934 6.99653 61.8925 6.99653ZM61.8925 8.51377C61.3145 8.51377 60.8007 8.65025 60.3512 8.92319C59.8936 9.1881 59.5364 9.56139 59.2795 10.0431C59.0226 10.5327 58.8942 11.0786 58.8942 11.6807C58.8942 12.2908 59.0226 12.8327 59.2795 13.3063C59.5364 13.788 59.8936 14.1613 60.3512 14.4262C60.8007 14.6991 61.3145 14.8356 61.8925 14.8356C62.4625 14.8356 62.9763 14.6991 63.4338 14.4262C63.8914 14.1613 64.2446 13.788 64.4935 13.3063C64.7504 12.8327 64.8788 12.2908 64.8788 11.6807C64.8788 11.0786 64.7504 10.5327 64.4935 10.0431C64.2446 9.56139 63.8914 9.1881 63.4338 8.92319C62.9763 8.65025 62.4625 8.51377 61.8925 8.51377ZM76.0895 14.9922C76.2421 15.1607 76.3183 15.3574 76.3183 15.5822C76.3183 15.7829 76.2501 15.9515 76.1136 16.0879C75.9691 16.2164 75.7845 16.2806 75.5597 16.2806C75.2948 16.2806 75.0941 16.1923 74.9576 16.0157L72.2724 12.8126L69.7316 16.0157C69.563 16.1923 69.3583 16.2806 69.1175 16.2806C68.8927 16.2806 68.7161 16.2164 68.5876 16.0879C68.4592 15.9515 68.395 15.7829 68.395 15.5822C68.395 15.3574 68.4753 15.1487 68.6358 14.956L71.2488 11.6807L68.4672 8.39336C68.2986 8.19267 68.2143 7.97993 68.2143 7.75515C68.2143 7.56249 68.2786 7.39792 68.407 7.26145C68.5355 7.133 68.7161 7.06878 68.9489 7.06878C69.2218 7.06878 69.4386 7.1611 69.5991 7.34574L72.3567 10.6572L74.8372 7.34574C74.9817 7.1611 75.1904 7.06878 75.4634 7.06878C75.6882 7.06878 75.8648 7.13702 75.9932 7.27349C76.1217 7.41799 76.1859 7.59059 76.1859 7.79128C76.1859 8.04014 76.1056 8.26491 75.945 8.46561L73.4043 11.7891L76.0895 14.9922ZM91.9122 3.11914C92.137 3.11914 92.3056 3.18738 92.4179 3.32385C92.5303 3.46032 92.5865 3.64094 92.5865 3.86572C92.5865 4.0343 92.5665 4.19084 92.5263 4.33534L89.1306 15.5822C89.0503 15.7909 88.9379 15.9595 88.7934 16.0879C88.6409 16.2164 88.4603 16.2806 88.2516 16.2806C88.0509 16.2806 87.8743 16.2164 87.7217 16.0879C87.5612 15.9595 87.4488 15.7949 87.3846 15.5942L84.8679 5.88871L82.3271 15.5822C82.2468 15.7909 82.1304 15.9595 81.9779 16.0879C81.8254 16.2164 81.6488 16.2806 81.4481 16.2806C81.2474 16.2806 81.0667 16.2204 80.9062 16.1C80.7456 15.9796 80.6332 15.811 80.569 15.5942L77.1853 4.33534C77.1372 4.19084 77.1131 4.03832 77.1131 3.87776C77.1131 3.64496 77.1773 3.46032 77.3058 3.32385C77.4342 3.18738 77.6108 3.11914 77.8356 3.11914C78.0363 3.11914 78.2129 3.17533 78.3654 3.28772C78.5179 3.40011 78.6303 3.56468 78.7026 3.78143L81.4601 13.3906L84.0129 3.87776C84.0531 3.70918 84.1534 3.56869 84.314 3.45631C84.4665 3.34392 84.6471 3.28772 84.8558 3.28772C85.0405 3.28772 85.2131 3.3399 85.3736 3.44426C85.5342 3.5406 85.6345 3.68108 85.6747 3.86572L88.2516 13.4508L91.0572 3.69714C91.1134 3.48842 91.2098 3.3399 91.3462 3.2516C91.4907 3.16329 91.6794 3.11914 91.9122 3.11914ZM96.2111 15.4136C96.2111 15.6544 96.1308 15.8591 95.9702 16.0277C95.8097 16.1963 95.5969 16.2806 95.332 16.2806C95.0912 16.2806 94.8865 16.1963 94.7179 16.0277C94.5493 15.8591 94.465 15.6544 94.465 15.4136V3.99818C94.465 3.74129 94.5493 3.52855 94.7179 3.35997C94.8865 3.19942 95.0912 3.11914 95.332 3.11914H98.7037C99.5385 3.11914 100.285 3.30378 100.943 3.67305C101.602 4.04233 102.111 4.56012 102.473 5.22642C102.842 5.89272 103.027 6.64733 103.027 7.49024C103.027 8.30907 102.842 9.03959 102.473 9.68181C102.111 10.316 101.602 10.8137 100.943 11.175C100.285 11.5362 99.5385 11.7168 98.7037 11.7168H96.2111V15.4136ZM98.7037 10.1033C99.4743 10.1033 100.104 9.85842 100.594 9.36873C101.092 8.87904 101.341 8.25287 101.341 7.49024C101.341 6.68747 101.092 6.02919 100.594 5.51542C100.104 4.99362 99.4743 4.73271 98.7037 4.73271H96.2111V10.1033H98.7037Z" fill="#022239"/>
<path d="M3.90918 0C3.91897 1.05223e-05 3.92673 0.00585938 3.93652 0.00585938H20.9756C23.1994 0.00585938 25.0073 1.81365 25.0078 4.03711V15.8184C25.0078 18.042 23.1995 19.8506 20.9756 19.8506H11.7773V19.8447H11.1006C10.7898 19.8445 10.4914 19.7215 10.2715 19.502C10.0515 19.2822 9.92731 18.9838 9.92676 18.6729C9.92703 18.3619 10.0508 18.0637 10.2705 17.8438C10.4905 17.6237 10.7895 17.4994 11.1006 17.499H13.8359C13.8554 17.499 13.8712 17.5094 13.8896 17.5107H20.9756C21.4242 17.5102 21.8546 17.3309 22.1719 17.0137C22.4888 16.6965 22.6674 16.2668 22.668 15.8184V4.03711C22.6679 3.85496 22.631 3.68222 22.5771 3.51758L17.5674 8.46191C15.9843 10.0241 13.4277 10.0081 11.8652 8.4248L5.86523 2.3457H1.17285C0.862173 2.3453 0.564552 2.2215 0.344727 2.00195C0.124772 1.78219 0.000546084 1.48378 0 1.17285C0.000469774 0.861943 0.123895 0.563605 0.34375 0.34375C0.563605 0.123895 0.861943 0.000469742 1.17285 0H3.90918ZM11.5859 13.3027C11.8971 13.3029 12.196 13.4274 12.416 13.6475C12.6358 13.8675 12.7597 14.1656 12.7598 14.4766C12.7595 14.7876 12.6351 15.0858 12.415 15.3057C12.195 15.5254 11.8969 15.6494 11.5859 15.6494H8.85059C8.53978 15.6491 8.24141 15.5253 8.02148 15.3057C7.80153 15.0859 7.6773 14.7875 7.67676 14.4766C7.67707 14.1656 7.80074 13.8674 8.02051 13.6475C8.24048 13.4274 8.53946 13.3031 8.85059 13.3027H11.5859ZM8.77344 9.20605C9.08449 9.20621 9.38255 9.32991 9.60254 9.5498C9.82246 9.76973 9.94605 10.0679 9.94629 10.3789C9.94602 10.6899 9.82251 10.9882 9.60254 11.208C9.38254 11.4278 9.08443 11.5517 8.77344 11.5518H6.03711C5.72645 11.5514 5.42881 11.4275 5.20898 11.208C4.98903 10.9882 4.8648 10.6898 4.86426 10.3789C4.86447 9.73197 5.39044 9.2063 6.03711 9.20605H8.77344ZM5.77246 5.10938C6.4207 5.10938 6.94619 5.63504 6.94629 6.28223C6.94602 6.59324 6.82158 6.89151 6.60156 7.11133C6.38157 7.33103 6.08338 7.45508 5.77246 7.45508H3.03711C2.72626 7.45481 2.42795 7.33099 2.20801 7.11133C1.98805 6.89157 1.86383 6.59315 1.86328 6.28223C1.86338 5.63504 2.39016 5.10938 3.03711 5.10938H5.77246ZM9.15234 2.3457L13.5312 6.78125C14.186 7.44467 15.2601 7.45239 15.9238 6.79688L20.4326 2.3457H9.15234Z" fill="url(#paint0_linear_1_3231)"/>
<defs>
<linearGradient id="paint0_linear_1_3231" x1="1.15427" y1="-1.67424e-07" x2="9.9054" y2="15.0056" gradientUnits="userSpaceOnUse">
<stop stop-color="#000A68"/>
<stop offset="1" stop-color="#00C4EE"/>
</linearGradient>
</defs>
</svg>
