<svg width="120" height="30" viewBox="0 0 120 30" fill="none" xmlns="http://www.w3.org/2000/svg">
<path d="M23.602 2.8538C22.3789 1.85718 21.0198 1.08707 19.5249 0.543457L12.0049 11.0533V12.2764L12.0502 14.8133V26.8181C12.0502 28.0865 13.0921 29.1738 14.3605 29.1738C14.3605 29.1738 14.3605 29.1738 14.4058 29.1738C14.4511 29.1738 14.4059 29.1738 14.4512 29.1738C15.7196 29.1738 16.7615 28.1318 16.7615 26.8181V14.8133V12.5029L17.3504 11.6875L21.0198 6.5685C23.2396 8.42585 24.6892 11.2798 24.6892 14.4056C24.6892 17.5314 23.2849 20.2947 21.1104 22.1974C20.1138 23.0128 20.0232 24.5077 20.8839 25.4591C21.6993 26.3651 23.1037 26.4557 24.0097 25.6403C27.1808 22.9222 29.174 18.8904 29.174 14.4056C29.174 9.69427 26.9996 5.52657 23.602 2.8538Z" fill="#6F56A3"/>
<path d="M8.1542 21.7445C5.93445 19.8872 4.53011 17.0785 4.53011 13.9527C4.53011 10.7817 5.97975 7.92769 8.24481 6.02504L10.9629 9.92094L13.9074 6.02504L12.4578 3.8959L9.69445 0C8.19951 0.543613 6.84048 1.31373 5.61735 2.26506C2.17446 4.98312 0 9.15083 0 13.8621C0 18.3923 2.03855 22.424 5.20963 25.1421C6.16095 25.9122 7.52 25.8669 8.33541 24.9609C9.24144 24.0549 9.10552 22.6053 8.1542 21.7445Z" fill="#AEAEAF"/>
<path d="M48.8345 11.9594H45.7993L44.8933 7.83701C44.848 7.65581 44.8027 7.33871 44.6668 6.79509C44.5762 6.29678 44.4856 5.84377 44.4403 5.48136C44.395 5.75317 44.3497 6.11557 44.2591 6.52328C44.1685 6.93099 44.1232 7.3387 44.0326 7.65581C43.942 8.01822 43.6249 9.42255 43.0813 11.9141H40.0461L37.6904 2.40088H40.182L41.2239 7.1575C41.4504 8.19942 41.6316 9.06014 41.7222 9.69436C41.7675 9.24135 41.8581 8.65243 42.0393 7.88232C42.1752 7.1122 42.3111 6.47799 42.447 5.97968L43.3078 2.40088H45.7087L46.5241 5.97968C46.66 6.56859 46.796 7.2028 46.9319 7.97292C47.0678 8.74304 47.1584 9.28665 47.2037 9.64906C47.249 9.15074 47.4302 8.33532 47.6567 7.1575L48.6986 2.40088H51.1902L48.8345 11.9594Z" fill="#6F56A3"/>
<path d="M59.2992 5.48147C59.2992 6.52339 58.9821 7.38411 58.3479 7.92773C57.7137 8.51664 56.853 8.78844 55.6751 8.78844H54.9503V11.9595H52.3682V2.44629H55.6751C56.853 2.44629 57.759 2.7181 58.3932 3.21641C58.9821 3.76003 59.2992 4.53015 59.2992 5.48147ZM54.9503 6.74989H55.4033C55.811 6.74989 56.0828 6.6593 56.3093 6.4328C56.5358 6.20629 56.6718 5.93448 56.6718 5.52677C56.6718 4.89256 56.3093 4.57545 55.5845 4.57545H54.905V6.74989H54.9503Z" fill="#6F56A3"/>
<path d="M71.1679 5.48147C71.1679 6.52339 70.8508 7.38411 70.2166 7.92773C69.5824 8.51664 68.7216 8.78844 67.5438 8.78844H66.819V11.9595H64.2368V2.44629H67.5438C68.7216 2.44629 69.6277 2.7181 70.2619 3.21641C70.8508 3.76003 71.1679 4.53015 71.1679 5.48147ZM66.819 6.74989H67.272C67.6797 6.74989 67.9515 6.6593 68.178 6.4328C68.4046 6.20629 68.5404 5.93448 68.5404 5.52677C68.5404 4.89256 68.178 4.57545 67.4532 4.57545H66.7737V6.74989H66.819Z" fill="#6F56A3"/>
<path d="M75.245 8.51663V11.9595H72.6628V2.44629H75.7886C78.3708 2.44629 79.6845 3.39762 79.6845 5.25496C79.6845 6.34219 79.1409 7.20291 78.0537 7.79183L80.817 11.9142H77.9178L75.9246 8.47134H75.245V8.51663ZM75.245 6.56869H75.7433C76.6494 6.56869 77.1024 6.16098 77.1024 5.39086C77.1024 4.75665 76.6494 4.39425 75.7886 4.39425H75.2903V6.56869H75.245Z" fill="#6F56A3"/>
<path d="M90.6023 7.20296C90.6023 8.78849 90.1945 10.0116 89.4244 10.827C88.6543 11.6425 87.4765 12.0955 85.9815 12.0955C84.4866 12.0955 83.3541 11.6878 82.5387 10.827C81.7232 10.0116 81.3608 8.78849 81.3608 7.15765C81.3608 5.57211 81.7685 4.34898 82.5387 3.53356C83.3088 2.71814 84.4866 2.26514 85.9815 2.26514C87.4765 2.26514 88.6543 2.67285 89.4244 3.48827C90.1945 4.39429 90.6023 5.61742 90.6023 7.20296ZM84.0336 7.20296C84.0336 9.0603 84.6678 9.96633 85.9362 9.96633C86.5705 9.96633 87.0687 9.73982 87.3859 9.28681C87.703 8.8338 87.8389 8.15428 87.8389 7.20296C87.8389 6.25163 87.6577 5.57211 87.3406 5.1191C87.0235 4.66609 86.5252 4.43958 85.9362 4.43958C84.6678 4.43958 84.0336 5.34561 84.0336 7.20296Z" fill="#6F56A3"/>
<path d="M91.5535 14.9495C91.1005 14.9495 90.6475 14.9042 90.2397 14.8136V12.8203C90.3756 12.8656 90.5116 12.8657 90.6928 12.911C90.8287 12.9563 91.0099 12.9563 91.1911 12.9563C91.5988 12.9563 91.9159 12.8203 92.0971 12.5938C92.2783 12.322 92.3689 11.9143 92.3689 11.2801V2.4917H94.9511V11.0536C94.9511 12.322 94.6793 13.3187 94.0903 13.9529C93.5467 14.6324 92.686 14.9495 91.5535 14.9495Z" fill="#6F56A3"/>
<path d="M102.652 11.9595H96.9897V2.44629H102.652V4.48484H99.5719V5.97978H102.426V8.01833H99.5719V9.83038H102.652V11.9595Z" fill="#6F56A3"/>
<path d="M108.541 4.43943C107.953 4.43943 107.454 4.71124 107.092 5.20955C106.729 5.70787 106.593 6.38738 106.593 7.29341C106.593 9.10545 107.273 10.0568 108.677 10.0568C109.085 10.0568 109.493 10.0115 109.9 9.87556C110.308 9.73966 110.671 9.60376 111.078 9.46785V11.6423C110.263 12.0047 109.402 12.1859 108.406 12.1859C106.956 12.1859 105.869 11.7782 105.099 10.9175C104.328 10.1021 103.966 8.87895 103.966 7.29341C103.966 6.29678 104.147 5.43606 104.51 4.71124C104.872 3.98642 105.416 3.39751 106.095 2.9898C106.775 2.58209 107.59 2.40088 108.541 2.40088C109.583 2.40088 110.535 2.62738 111.486 3.0804L110.716 5.11895C110.353 4.93774 109.991 4.80184 109.674 4.71124C109.312 4.48473 108.949 4.43943 108.541 4.43943Z" fill="#6F56A3"/>
<path d="M117.103 11.9596H114.521V4.57555H112.211V2.4917H119.414V4.57555H117.103V11.9596Z" fill="#6F56A3"/>
<path d="M41.4052 26.5468L39.8196 20.9747H39.7743C39.8649 21.9261 39.8649 22.6509 39.8649 23.1945V26.5468H38.0076V18.8003H40.7709L42.4018 24.2817H42.4471L44.0326 18.8003H46.796V26.5468H44.8933V23.1492C44.8933 22.968 44.8933 22.7868 44.8933 22.5603C44.8933 22.3338 44.9386 21.8355 44.9839 20.9747H44.9386L43.3984 26.5468H41.4052Z" fill="#AEAEAF"/>
<path d="M53.2288 26.5468L52.8664 25.0971H50.3748L49.9671 26.5468H47.6567L50.1936 18.8003H52.957L55.4938 26.5468H53.2288ZM52.4134 23.421L52.0962 22.1526C52.0056 21.8808 51.915 21.5184 51.8244 21.0653C51.7338 20.6123 51.6432 20.2952 51.5979 20.114C51.5526 20.2952 51.5073 20.567 51.4167 21.02C51.3261 21.4278 51.0996 22.2432 50.7825 23.4663H52.4134V23.421Z" fill="#AEAEAF"/>
<path d="M63.6933 26.5468H60.9752L58.1665 21.1107H58.1212C58.1665 21.9714 58.2119 22.6056 58.2119 23.0586V26.5468H56.3545V18.8003H59.0725L61.8812 24.1911H61.9265C61.8812 23.421 61.8359 22.7868 61.8359 22.3338V18.8456H63.6933V26.5468Z" fill="#AEAEAF"/>
<path d="M70.0808 26.5468L69.7184 25.0971H67.2269L66.8192 26.5468H64.5088L67.0457 18.8003H69.8091L72.3459 26.5468H70.0808ZM69.3108 23.421L68.9936 22.1526C68.903 21.8808 68.8124 21.5184 68.7218 21.0653C68.6312 20.6123 68.5406 20.2952 68.4953 20.114C68.45 20.2952 68.4047 20.567 68.3141 21.02C68.2235 21.4278 67.997 22.2432 67.6799 23.4663H69.3108V23.421Z" fill="#AEAEAF"/>
<path d="M76.3324 22.0619H79.6846V26.2296C78.7786 26.5467 77.782 26.6826 76.6948 26.6826C75.5169 26.6826 74.5656 26.3202 73.9314 25.6407C73.2972 24.9611 72.9348 23.9645 72.9348 22.6961C72.9348 21.4277 73.2972 20.4763 74.022 19.7968C74.7468 19.1173 75.7435 18.7549 77.0119 18.7549C77.5102 18.7549 77.9632 18.8002 78.3709 18.8908C78.824 18.9814 79.1864 19.1173 79.5035 19.2532L78.824 20.884C78.2803 20.6122 77.6461 20.4763 77.0119 20.4763C76.423 20.4763 75.9246 20.6575 75.6075 21.0652C75.2904 21.473 75.1092 22.0166 75.1092 22.7414C75.1092 23.4662 75.2451 24.0098 75.5622 24.3722C75.8794 24.7346 76.2871 24.9611 76.876 24.9611C77.1931 24.9611 77.4649 24.9158 77.7367 24.8705V23.6474H76.3777V22.0619H76.3324Z" fill="#AEAEAF"/>
<path d="M85.8003 26.5468H81.2249V18.8003H85.8003V20.4764H83.3087V21.6996H85.6191V23.3757H83.3087V24.8253H85.8003V26.5468Z" fill="#AEAEAF"/>
<path d="M89.2431 23.7381V26.5468H87.1592V18.8003H89.6961C91.7799 18.8003 92.8672 19.5704 92.8672 21.0653C92.8672 21.9714 92.4141 22.6509 91.5534 23.1492L93.8185 26.5015H91.4628L89.832 23.6928H89.2431V23.7381ZM89.2431 22.1979H89.6507C90.3756 22.1979 90.738 21.8808 90.738 21.2466C90.738 20.7029 90.3756 20.4311 89.6507 20.4311H89.2431V22.1979Z" fill="#AEAEAF"/>
<path d="M103.015 21.2008C103.015 22.0615 102.743 22.7411 102.199 23.1941C101.656 23.6471 100.886 23.8736 99.8437 23.8736H99.1189V26.7729H97.3975V18.6187H99.9796C100.976 18.6187 101.701 18.8452 102.245 19.2529C102.743 19.7059 103.015 20.3401 103.015 21.2008ZM99.1189 22.4692H99.7078C100.251 22.4692 100.614 22.3786 100.886 22.1521C101.157 21.9256 101.293 21.6538 101.293 21.2461C101.293 20.8384 101.203 20.5213 100.976 20.3401C100.75 20.1589 100.387 20.0683 99.9343 20.0683H99.1642V22.4692H99.1189Z" fill="#AEAEAF"/>
<path d="M106.276 23.6471V26.7729H104.555V18.6187H106.911C107.998 18.6187 108.813 18.7999 109.357 19.2076C109.9 19.6153 110.172 20.2042 110.172 21.0196C110.172 21.5179 110.036 21.9256 109.765 22.288C109.493 22.6505 109.13 22.9676 108.632 23.1488C109.855 24.9608 110.671 26.1386 111.033 26.6822H109.13L107.182 23.5565H106.276V23.6471ZM106.276 22.2427H106.82C107.364 22.2427 107.771 22.1521 108.043 21.9709C108.315 21.7897 108.451 21.5179 108.451 21.1102C108.451 20.7025 108.315 20.4307 108.043 20.2948C107.771 20.1136 107.364 20.0683 106.82 20.0683H106.276V22.2427Z" fill="#AEAEAF"/>
<path d="M119.459 22.696C119.459 24.0551 119.142 25.097 118.462 25.8218C117.783 26.5466 116.832 26.909 115.608 26.909C114.34 26.909 113.389 26.5466 112.754 25.8218C112.075 25.097 111.758 24.0551 111.758 22.696C111.758 21.337 112.075 20.2951 112.754 19.6155C113.434 18.8907 114.385 18.5283 115.654 18.5283C116.922 18.5283 117.873 18.8907 118.508 19.6155C119.097 20.2951 119.459 21.337 119.459 22.696ZM113.479 22.696C113.479 23.6021 113.66 24.2816 113.978 24.7346C114.34 25.1876 114.838 25.4141 115.518 25.4141C116.877 25.4141 117.602 24.5081 117.602 22.6507C117.602 20.8387 116.922 19.8874 115.563 19.8874C114.884 19.8874 114.34 20.1139 114.023 20.5669C113.66 21.1105 113.479 21.79 113.479 22.696Z" fill="#AEAEAF"/>
</svg>
