<svg width="103" height="29" viewBox="0 0 103 29" fill="none" xmlns="http://www.w3.org/2000/svg">
<path fill-rule="evenodd" clip-rule="evenodd" d="M0 28.7368H13.679C19.5332 28.7295 24.2771 24.0632 24.2846 18.3048V10.432C24.2771 4.67358 19.5332 0.00730528 13.679 0H10.6055C4.75134 0.00730528 0.00742684 4.67358 0 10.432V28.7368ZM13.679 25.8562H2.92853V10.432C2.9341 6.26383 6.36794 2.8862 10.6055 2.88072H13.679C17.9166 2.8862 21.3504 6.26383 21.356 10.432V18.3049C21.3504 22.4731 17.9166 25.8507 13.679 25.8562Z" fill="#3B82F6"/>
<rect x="7.06714" y="17.9565" width="8.50263" height="2.12816" rx="0.250611" fill="#0F172A"/>
<rect x="7.06714" y="13.6641" width="10.1472" height="2.12816" rx="0.250611" fill="#0F172A"/>
<rect x="7.06714" y="9.37109" width="5.64483" height="2.12816" rx="0.250611" fill="#0F172A"/>
<path d="M35.5526 20.9887L32.7468 11.4429H35.2043L36.8684 18.3136L38.8035 11.4429H41.5512L43.4863 18.3136L45.1697 11.4429H47.6272L44.8021 20.9887H42.2285L40.1774 13.8486L38.1262 20.9887H35.5526Z" fill="#0F172A"/>
<path d="M52.8721 21.2197C51.9046 21.2197 51.0467 21.0144 50.2985 20.6038C49.5503 20.1932 48.9633 19.6159 48.5376 18.8717C48.1119 18.1275 47.8991 17.2679 47.8991 16.2928C47.8991 15.3048 48.1055 14.4259 48.5183 13.6561C48.944 12.8863 49.5245 12.2897 50.2598 11.8663C51.008 11.43 51.8852 11.2119 52.8915 11.2119C53.8332 11.2119 54.6652 11.4172 55.3876 11.8278C56.1101 12.2383 56.6712 12.8029 57.0711 13.5214C57.4839 14.2271 57.6903 15.0161 57.6903 15.8886C57.6903 16.0297 57.6839 16.1773 57.671 16.3313C57.671 16.4852 57.6645 16.6456 57.6516 16.8124H50.3566C50.4082 17.5566 50.6662 18.1404 51.1306 18.5638C51.6079 18.9872 52.1819 19.1989 52.8528 19.1989C53.3559 19.1989 53.7751 19.0898 54.1105 18.8717C54.4588 18.6407 54.7168 18.3456 54.8845 17.9864H57.4001C57.2195 18.5894 56.9163 19.1411 56.4906 19.6415C56.0778 20.1291 55.5618 20.514 54.9426 20.7963C54.3363 21.0785 53.6461 21.2197 52.8721 21.2197ZM52.8915 13.2135C52.2851 13.2135 51.7498 13.3867 51.2854 13.7331C50.821 14.0667 50.5243 14.5799 50.3953 15.2728H55.1748C55.1361 14.6441 54.9039 14.1437 54.4782 13.7716C54.0525 13.3995 53.5236 13.2135 52.8915 13.2135Z" fill="#0F172A"/>
<path d="M59.8318 20.9886V7.5166H64.4565C66.0432 7.5166 67.3462 7.79887 68.3653 8.36341C69.3973 8.91512 70.1584 9.69778 70.6486 10.7114C71.1517 11.7122 71.4033 12.8926 71.4033 14.2526C71.4033 15.6126 71.1517 16.7994 70.6486 17.813C70.1584 18.8138 69.3973 19.5965 68.3653 20.161C67.3462 20.7127 66.0432 20.9886 64.4565 20.9886H59.8318ZM62.3086 18.8716H64.3404C65.4756 18.8716 66.3722 18.6919 67.0301 18.3327C67.688 17.9606 68.1589 17.4345 68.4427 16.7545C68.7265 16.0617 68.8684 15.2277 68.8684 14.2526C68.8684 13.2903 68.7265 12.4627 68.4427 11.7699C68.1589 11.0771 67.688 10.5446 67.0301 10.1725C66.3722 9.80042 65.4756 9.61438 64.3404 9.61438H62.3086V18.8716Z" fill="#3B82F6"/>
<path d="M77.4949 21.2195C76.5661 21.2195 75.7275 21.0078 74.9793 20.5844C74.244 20.161 73.6571 19.5772 73.2185 18.8331C72.7927 18.0761 72.5799 17.2036 72.5799 16.2156C72.5799 15.2277 72.7992 14.3616 73.2378 13.6175C73.6764 12.8605 74.2634 12.2703 74.9987 11.8469C75.7469 11.4235 76.5854 11.2118 77.5142 11.2118C78.4301 11.2118 79.2558 11.4235 79.9911 11.8469C80.7393 12.2703 81.3262 12.8605 81.752 13.6175C82.1906 14.3616 82.4099 15.2277 82.4099 16.2156C82.4099 17.2036 82.1906 18.0761 81.752 18.8331C81.3262 19.5772 80.7393 20.161 79.9911 20.5844C79.2429 21.0078 78.4108 21.2195 77.4949 21.2195ZM77.4949 19.0833C78.1399 19.0833 78.701 18.8459 79.1784 18.3712C79.6557 17.8836 79.8943 17.1651 79.8943 16.2156C79.8943 15.2662 79.6557 14.5541 79.1784 14.0794C78.701 13.5918 78.1463 13.348 77.5142 13.348C76.8563 13.348 76.2887 13.5918 75.8114 14.0794C75.347 14.5541 75.1148 15.2662 75.1148 16.2156C75.1148 17.1651 75.347 17.8836 75.8114 18.3712C76.2887 18.8459 76.8499 19.0833 77.4949 19.0833Z" fill="#3B82F6"/>
<path d="M88.6854 21.2195C87.705 21.2195 86.8407 21.0078 86.0925 20.5844C85.3443 20.161 84.7509 19.5708 84.3123 18.8138C83.8866 18.0568 83.6737 17.1908 83.6737 16.2156C83.6737 15.2405 83.8866 14.3745 84.3123 13.6175C84.7509 12.8605 85.3443 12.2703 86.0925 11.8469C86.8407 11.4235 87.705 11.2118 88.6854 11.2118C89.911 11.2118 90.943 11.5325 91.7815 12.1741C92.62 12.8027 93.1554 13.6752 93.3876 14.7915H90.7753C90.6463 14.3296 90.3883 13.9703 90.0013 13.7137C89.6272 13.4443 89.1821 13.3096 88.6661 13.3096C87.9824 13.3096 87.4019 13.5662 86.9246 14.0794C86.4472 14.5926 86.2086 15.3047 86.2086 16.2156C86.2086 17.1266 86.4472 17.8387 86.9246 18.3519C87.4019 18.8651 87.9824 19.1217 88.6661 19.1217C89.1821 19.1217 89.6272 18.9934 90.0013 18.7368C90.3883 18.4802 90.6463 18.1146 90.7753 17.6398H93.3876C93.1554 18.7176 92.62 19.5836 91.7815 20.238C90.943 20.8923 89.911 21.2195 88.6854 21.2195Z" fill="#3B82F6"/>
<path d="M98.9116 21.2195C98.0602 21.2195 97.312 21.0848 96.667 20.8154C96.022 20.5331 95.506 20.1482 95.119 19.6606C94.732 19.1731 94.4998 18.6085 94.4224 17.967H96.9186C96.996 18.3391 97.2024 18.6598 97.5378 18.9293C97.8861 19.1859 98.3311 19.3142 98.8729 19.3142C99.4148 19.3142 99.8082 19.2051 100.053 18.987C100.311 18.7689 100.44 18.5187 100.44 18.2364C100.44 17.8259 100.26 17.55 99.8985 17.4089C99.5373 17.2549 99.0342 17.1074 98.3892 16.9662C97.9764 16.8764 97.5571 16.7674 97.1314 16.6391C96.7057 16.5107 96.3122 16.3504 95.951 16.1579C95.6027 15.9526 95.3189 15.696 95.0996 15.3881C94.8803 15.0673 94.7707 14.676 94.7707 14.2141C94.7707 13.3673 95.1061 12.6552 95.7769 12.0778C96.4606 11.5005 97.4152 11.2118 98.6407 11.2118C99.776 11.2118 100.679 11.4748 101.35 12.0008C102.034 12.5269 102.44 13.2518 102.569 14.1756H100.227C100.086 13.4699 99.5502 13.1171 98.6214 13.1171C98.157 13.1171 97.7958 13.2069 97.5378 13.3865C97.2927 13.5662 97.1701 13.7907 97.1701 14.0601C97.1701 14.3424 97.3572 14.5669 97.7313 14.7337C98.1054 14.9005 98.602 15.0545 99.2213 15.1956C99.8921 15.3496 100.505 15.5228 101.06 15.7153C101.627 15.8949 102.079 16.1707 102.414 16.5428C102.749 16.9021 102.917 17.4217 102.917 18.1017C102.93 18.6919 102.775 19.2244 102.453 19.6991C102.13 20.1738 101.666 20.5459 101.06 20.8154C100.453 21.0848 99.7373 21.2195 98.9116 21.2195Z" fill="#3B82F6"/>
</svg>
