<svg width="108" height="27" viewBox="0 0 108 27" fill="none" xmlns="http://www.w3.org/2000/svg">
<path d="M43.8644 10.9217C44.653 10.9217 45.3056 11.5744 45.3056 12.363V17.8563C45.3056 18.7537 46.0127 19.4879 46.9101 19.5423H46.9645C47.8619 19.5423 48.5962 18.8353 48.6505 17.9379V13.8043C48.6505 12.2271 49.9287 10.9217 51.5331 10.9217V17.7475C51.5331 20.2222 49.6023 22.3161 47.1277 22.3977C45.9311 22.4249 44.7618 21.9898 43.8644 21.174C42.9941 21.9898 41.8248 22.4521 40.601 22.3977C38.1264 22.3161 36.1956 20.2222 36.1956 17.7475V13.7771C36.1956 12.1999 37.4737 10.8945 39.0782 10.8945V17.8291C39.0782 18.7265 39.7852 19.4607 40.6826 19.5151H40.737C41.6344 19.5151 42.3959 18.8081 42.423 17.8835V12.3086C42.423 11.5744 43.0757 10.9217 43.8644 10.9217Z" fill="#009BFF"/>
<path d="M90.0946 10.9217C93.2491 10.6769 96.0229 13.0428 96.2677 16.2246C96.2677 16.279 96.2677 16.3606 96.2677 16.4149V19.7598C96.2677 21.2011 95.0983 22.3977 93.6298 22.3977V16.4149C93.4938 14.7017 91.9982 13.4236 90.2849 13.5595C88.5717 13.6955 87.2935 15.1912 87.4295 16.9044C87.5655 18.6177 89.0612 19.8958 90.7744 19.7598C91.7534 19.6782 92.6508 19.1616 93.1675 18.3185V21.7722C90.3393 23.2407 86.8856 22.1257 85.4171 19.2975C83.9486 16.4693 85.0636 13.0157 87.8918 11.5472C88.5717 11.1936 89.3331 10.9761 90.0946 10.9217Z" fill="#000391"/>
<path d="M59.4194 13.5597C58.3588 13.5597 57.3798 14.1035 56.8088 15.001H62.0573C61.459 14.1035 60.48 13.5597 59.4194 13.5597ZM62.438 17.394H56.3737C56.7816 19.0801 58.4404 20.1135 60.1265 19.7056C60.2352 19.6784 60.3712 19.6512 60.48 19.5968C61.3502 19.2704 62.2476 19.0801 63.1722 19.0801H64.6407C63.3082 21.9627 59.9089 23.2408 57.0263 21.9083C54.1437 20.5758 52.8656 17.1765 54.1981 14.2939C55.5306 11.4113 58.9299 10.1332 61.8125 11.4657C63.7433 12.3359 65.0214 14.2123 65.1574 16.3063V16.3335C65.1574 16.9317 64.6679 17.4212 64.0696 17.4212L62.438 17.394Z" fill="#009BFF"/>
<path d="M100.564 5.64648C101.761 5.64648 102.713 6.59829 102.713 7.79484C102.713 8.99139 101.761 9.94317 100.564 9.94317C99.3678 9.94317 98.416 8.99139 98.416 7.79484C98.416 6.62548 99.395 5.64648 100.564 5.64648ZM102.006 10.9222V19.5428C102.006 21.12 100.728 22.4253 99.1502 22.4253V13.8048C99.1502 12.2003 100.428 10.9222 102.006 10.9222Z" fill="#000391"/>
<path d="M107.744 6.84277V19.5153C107.744 21.0926 106.466 22.3979 104.888 22.3979V9.72536C104.888 8.14809 106.167 6.84277 107.744 6.84277Z" fill="#000391"/>
<path d="M75.0561 12.4176L79.0809 7.60421C79.4888 7.11471 80.0599 6.84277 80.6854 6.84277C81.8547 6.84277 82.7793 7.79458 82.7793 8.93674V19.3521C82.7793 20.9838 81.4468 22.3163 79.8151 22.3163H79.7879V11.3842L75.0289 17.0678L70.2427 11.4114V22.3163C68.6111 22.3163 67.2786 20.9838 67.2786 19.3521V8.93674C67.2786 7.79458 68.2032 6.84277 69.3725 6.84277C69.998 6.84277 70.5691 7.11472 70.977 7.57702L75.0561 12.4176Z" fill="#000391"/>
<path d="M13.7875 18.9714L0.951799 11.9009C0.652662 11.7377 0.271956 11.8465 0.0815961 12.1728C0.0272075 12.2544 0 12.3632 0 12.4448V24.0295C0 25.5252 1.22374 26.749 2.71943 26.749H24.774C26.2697 26.749 27.4934 25.5252 27.4934 24.0295V12.336C27.4934 11.9825 27.1943 11.7105 26.8408 11.7377C26.732 11.7377 26.6504 11.7649 26.5688 11.8193L13.7875 18.9714Z" fill="#000391"/>
<path d="M13.8418 16.8775L25.3178 10.3509C25.6169 10.1877 25.7257 9.77979 25.5625 9.48065C25.5354 9.42626 25.481 9.37186 25.4266 9.31747C22.7615 6.95157 18.1113 2.92682 15.6366 0.696888C14.6033 -0.227717 13.0804 -0.227711 12.0198 0.6697C9.43637 2.92682 4.84053 7.03315 2.12111 9.39905C1.87636 9.6438 1.84914 10.0245 2.0667 10.2965C2.12109 10.3509 2.1755 10.3781 2.22989 10.4324L13.8418 16.8775Z" fill="#009BFF"/>
</svg>
