<svg width="63" height="28" viewBox="0 0 63 28" fill="none" xmlns="http://www.w3.org/2000/svg">
<path d="M0 10.5954V25.0656L5.07884 16.629C6.1351 14.8744 8.0334 13.8015 10.0814 13.8015H14.29C18.1012 13.8015 21.1908 10.7119 21.1908 6.90073C21.1908 3.08956 18.1012 0 14.29 0H10.5954C4.74372 0 0 4.74372 0 10.5954Z" fill="url(#paint0_linear_1_3230)"/>
<mask id="mask0_1_3230" style="mask-type:alpha" maskUnits="userSpaceOnUse" x="0" y="0" width="22" height="26">
<g opacity="0.160319">
<path d="M0 10.5954V25.0656L5.07884 16.629C6.1351 14.8744 8.0334 13.8015 10.0814 13.8015H14.29C18.1012 13.8015 21.1908 10.7119 21.1908 6.90073C21.1908 3.08956 18.1012 0 14.29 0H10.5954C4.74372 0 0 4.74372 0 10.5954Z" fill="url(#paint1_linear_1_3230)"/>
</g>
</mask>
<g mask="url(#mask0_1_3230)">
<path opacity="0.160319" fill-rule="evenodd" clip-rule="evenodd" d="M0.432861 25.0654C1.74678 14.6533 4.78762 9.44725 9.55539 9.44725C16.7071 9.44725 19.6505 10.3456 19.6505 2.95459C19.6505 -1.97273 26.5188 -0.312568 40.2552 7.93507L8.15879 29.1888L0.432861 25.0654Z" fill="url(#paint2_linear_1_3230)"/>
</g>
<path d="M27.0035 17.6338C27.751 17.6338 28.454 17.8271 29.107 18.2119C29.7585 18.5958 30.2828 19.1259 30.677 19.7984C31.0642 20.459 31.2673 21.1975 31.2863 22.009L31.2874 22.0702L31.2868 22.0806C31.2715 22.356 31.1538 22.5954 30.9433 22.7833C30.7434 22.9619 30.5031 23.0563 30.2351 23.0624L30.2072 23.0627L24.8282 23.0627L24.8306 23.0749C24.9377 23.6099 25.1721 24.0478 25.535 24.3961L25.5611 24.4209L25.5865 24.4442C26.0562 24.8703 26.6266 25.0821 27.3125 25.0821C27.7923 25.0821 28.1731 25.0138 28.4543 24.8825C28.7355 24.7513 28.9843 24.5853 29.2018 24.3841L29.2359 24.352L29.2601 24.3289L29.2888 24.3117C29.4956 24.1876 29.7049 24.1226 29.9145 24.1226C30.1799 24.1226 30.4126 24.2206 30.5942 24.41C30.7717 24.5953 30.8644 24.821 30.8644 25.0726C30.8644 25.386 30.7213 25.666 30.455 25.9003L30.4429 25.9106L30.4199 25.9334C30.1014 26.2429 29.6951 26.505 29.2024 26.7212L29.1528 26.7427L29.1027 26.7638C28.5461 26.9957 27.9758 27.1121 27.3938 27.1121C26.4666 27.1121 25.6443 26.9159 24.9315 26.5218C24.2153 26.1259 23.6594 25.57 23.2689 24.8589C22.8808 24.1522 22.6871 23.3545 22.6871 22.4705C22.6871 21.5117 22.8856 20.663 23.2845 19.9288C23.6834 19.1946 24.2137 18.6264 24.8731 18.2296C25.5321 17.833 26.2441 17.6338 27.0035 17.6338ZM21.0838 17.7476C21.3694 17.7476 21.6217 17.8524 21.8241 18.0549C22.0282 18.259 22.1314 18.5226 22.1314 18.8277C22.1314 18.9344 22.107 19.057 22.059 19.2064L22.0491 19.2366L19.5609 26.2621L19.5576 26.271L19.5474 26.2971C19.4567 26.5209 19.3062 26.6958 19.102 26.8125C18.9019 26.9268 18.6836 26.9733 18.4558 26.9503L18.4367 26.9481L18.4193 26.9466C18.0442 26.9111 17.7493 26.7007 17.5554 26.3431L17.5429 26.3195L17.5309 26.2961L17.5243 26.2829L16.1186 22.6065L14.8247 26.273L14.8071 26.3123C14.7208 26.4999 14.5975 26.6508 14.4384 26.7592C14.2847 26.864 14.1148 26.9269 13.9328 26.9459L13.91 26.9479L13.8924 26.9501C13.6885 26.9718 13.4881 26.9305 13.2977 26.8302L13.2729 26.8168L13.2483 26.8027C13.0373 26.679 12.8871 26.5026 12.8071 26.2816L12.7996 26.2603L10.28 19.2378L10.2762 19.2266L10.2655 19.1924C10.2309 19.0756 10.2136 18.9537 10.2136 18.8277C10.2136 18.5362 10.312 18.2789 10.5051 18.071C10.7042 17.8565 10.9686 17.7476 11.2774 17.7476C11.7635 17.7476 12.1148 17.9815 12.2676 18.4128L12.2753 18.4352L13.9391 23.1469L15.1934 19.8593L15.2059 19.8288C15.3847 19.4064 15.7291 19.1787 16.1888 19.1787C16.6344 19.1787 16.9633 19.4137 17.128 19.84L17.1345 19.8573L18.4162 23.0947L20.0532 18.4357L20.0643 18.4062C20.2329 17.9751 20.5928 17.7476 21.0838 17.7476ZM27.0035 19.6638C26.4609 19.6638 25.9994 19.8137 25.6084 20.1141C25.3095 20.3437 25.0872 20.6776 24.9434 21.1225L24.9306 21.1628H29.0183L29.0155 21.1483C28.9348 20.7615 28.7354 20.439 28.411 20.1716L28.3858 20.1511C27.978 19.8249 27.5208 19.6638 27.0035 19.6638Z" fill="#0B2162"/>
<path d="M58.6019 14.8042C59.3084 14.8042 59.9773 14.9185 60.6069 15.1475C61.2239 15.3718 61.7317 15.6703 62.1278 16.0446L62.1549 16.0705L62.1704 16.0842C62.4518 16.3363 62.6092 16.624 62.6243 16.9399L62.6252 16.9656L62.6255 16.9901C62.6255 17.2645 62.5211 17.5119 62.322 17.7184C62.1196 17.9283 61.8658 18.0376 61.5779 18.0376C61.3642 18.0376 61.1749 17.9747 61.023 17.8475L60.9984 17.8261L60.9922 17.8198C60.742 17.5697 60.3865 17.3524 59.9239 17.1714C59.4586 16.9893 59.0182 16.8993 58.6019 16.8993C57.9323 16.8993 57.414 17.0331 57.041 17.2928C56.6916 17.536 56.5269 17.8382 56.5269 18.2261C56.5269 18.6576 56.6913 18.9698 57.0345 19.1957C57.4283 19.4549 58.0341 19.6817 58.8445 19.8688C59.7101 20.0574 60.4216 20.2806 60.9804 20.5403C61.5662 20.8125 62.0242 21.1957 62.3484 21.688C62.6762 22.1857 62.8369 22.8225 62.8369 23.5928C62.8369 24.2838 62.6413 24.9036 62.2516 25.4432C61.8676 25.975 61.3458 26.3876 60.6917 26.6797C60.0452 26.9683 59.3369 27.1122 58.5693 27.1122C57.7444 27.1122 57.0105 26.9956 56.3685 26.7606C55.7409 26.5309 55.1435 26.1638 54.5767 25.6613L54.5325 25.6218L54.5149 25.6065C54.2523 25.3736 54.1061 25.0951 54.0916 24.7828L54.0907 24.7567L54.0904 24.7312C54.0904 24.4558 54.198 24.206 54.4021 23.9946C54.6094 23.7799 54.8655 23.6674 55.1542 23.6674C55.4125 23.6674 55.6421 23.7545 55.8291 23.9259C56.2377 24.3038 56.6552 24.5796 57.0815 24.7551C57.5045 24.9293 57.989 25.0172 58.5368 25.0172C59.1634 25.0172 59.6829 24.8757 60.1027 24.5959C60.4949 24.3344 60.6768 24.0292 60.6768 23.6636C60.6679 23.1971 60.4812 22.8516 60.102 22.5974C59.6777 22.3129 59.0086 22.0674 58.1029 21.8696C56.9396 21.6324 56.034 21.2382 55.3892 20.6806C54.7188 20.1007 54.3831 19.2963 54.3831 18.2911C54.3831 17.5916 54.5691 16.9706 54.941 16.4368C55.3096 15.9076 55.8198 15.5013 56.4655 15.2195C57.101 14.9422 57.8139 14.8042 58.6019 14.8042ZM47.5757 14.8042C48.6819 14.8042 49.6797 15.0766 50.5627 15.6213C51.4431 16.1644 52.1332 16.9061 52.6296 17.8418C53.1247 18.7751 53.372 19.8153 53.372 20.9582C53.372 22.1011 53.1247 23.1414 52.6296 24.0746C52.1332 25.0104 51.4431 25.752 50.5627 26.2952C49.6797 26.8399 48.6819 27.1122 47.5757 27.1122C46.4695 27.1122 45.4718 26.8399 44.5888 26.2952C43.7084 25.752 43.0182 25.0104 42.5218 24.0746C42.0268 23.1414 41.7795 22.1011 41.7795 20.9582C41.7795 19.8153 42.0268 18.7751 42.5218 17.8418C43.0182 16.9061 43.7084 16.1644 44.5888 15.6213C45.4718 15.0766 46.4695 14.8042 47.5757 14.8042ZM37.5273 14.9668L37.5713 14.9671C38.1853 14.9752 38.7567 15.1458 39.2793 15.4768C39.811 15.8135 40.2339 16.2719 40.5453 16.8477C40.8566 17.4233 41.0123 18.0578 41.0123 18.7465C41.0123 19.4345 40.8569 20.0736 40.5465 20.6594C40.2355 21.2461 39.813 21.713 39.2813 22.0556C38.7574 22.3932 38.1843 22.5669 37.5684 22.5747L37.5254 22.5749H34.7674L34.7674 25.8733L34.767 25.902C34.76 26.1804 34.6616 26.4263 34.476 26.6263C34.2776 26.8399 34.0189 26.9496 33.7199 26.9496C33.4117 26.9496 33.1498 26.8441 32.9554 26.6341C32.7727 26.4368 32.6785 26.1868 32.6727 25.8985L32.6724 25.8696V16.043L32.6728 16.0151C32.6802 15.7319 32.7874 15.4826 32.9877 15.2822C33.1893 15.0806 33.4402 14.9736 33.7248 14.9671L33.7524 14.9668H37.5273ZM47.5757 16.948C46.8943 16.948 46.2915 17.1167 45.7604 17.4543C45.2273 17.793 44.8115 18.2636 44.5101 18.8714C44.2061 19.4846 44.0534 20.1791 44.0534 20.9582C44.0534 21.7264 44.206 22.4154 44.5101 23.0288C44.8118 23.6371 45.2282 24.1108 45.7621 24.4551C46.2929 24.7974 46.8951 24.9684 47.5757 24.9684C48.2564 24.9684 48.8586 24.7974 49.3894 24.4551C49.9233 24.1108 50.3397 23.6371 50.6413 23.0288C50.9455 22.4154 51.098 21.7264 51.098 20.9582C51.098 20.19 50.9455 19.501 50.6413 18.8876C50.3397 18.2794 49.9233 17.8056 49.3894 17.4613C48.8586 17.119 48.2564 16.948 47.5757 16.948ZM37.5254 17.0619H34.7674V20.4962H37.5254C37.7513 20.4962 37.959 20.4235 38.1572 20.2727C38.3668 20.1132 38.5343 19.8998 38.6606 19.6284C38.7884 19.3539 38.8522 19.061 38.8522 18.7465C38.8522 18.2617 38.7155 17.8607 38.4416 17.5311C38.183 17.2199 37.8915 17.069 37.5499 17.0621L37.5254 17.0619Z" fill="#2A5AFA"/>
<defs>
<linearGradient id="paint0_linear_1_3230" x1="12.7133" y1="3.08581" x2="2.07169" y2="18.4494" gradientUnits="userSpaceOnUse">
<stop offset="0.000422297" stop-color="#0ACEFE"/>
<stop offset="1" stop-color="#495AFF"/>
</linearGradient>
<linearGradient id="paint1_linear_1_3230" x1="10.5954" y1="0" x2="10.5954" y2="25.0656" gradientUnits="userSpaceOnUse">
<stop stop-color="#265FF9"/>
<stop offset="1" stop-color="#4339FF"/>
</linearGradient>
<linearGradient id="paint2_linear_1_3230" x1="20.3441" y1="0.19043" x2="20.3441" y2="29.1888" gradientUnits="userSpaceOnUse">
<stop stop-color="#265FF9"/>
<stop offset="1" stop-color="#4339FF"/>
</linearGradient>
</defs>
</svg>
