<svg width="117" height="27" viewBox="0 0 117 27" fill="none" xmlns="http://www.w3.org/2000/svg">
<path d="M54.2298 5.04004C54.4763 5.04004 54.5858 5.14959 54.531 5.39609L51.8196 19.3368C51.6005 20.4871 51.2992 21.1992 50.9431 21.4731C50.5871 21.747 49.7928 21.9113 48.6151 21.9113C47.2731 21.9113 46.3967 21.7743 46.0406 21.5005C45.6846 21.2266 45.3559 20.5145 45.082 19.3368L43.1649 11.1476L41.2203 19.3368C40.563 21.747 40.5356 21.7743 37.6872 21.9113C36.5095 21.9113 35.6878 21.747 35.3318 21.4731C34.9757 21.1992 34.6744 20.4871 34.4553 19.3368L31.7713 5.39609C31.7165 5.14959 31.8261 5.04004 32.0452 5.04004H34.9209C35.0853 5.04004 35.1674 5.14959 35.2222 5.39609L37.5502 17.803C37.6598 18.3508 37.7693 18.4603 38.0432 18.4603C38.3993 18.4603 38.454 18.3508 38.6184 17.803L41.4668 5.99863C41.4942 5.77953 41.7133 5.64258 41.9324 5.64258H44.5069C44.7534 5.64258 44.8629 5.75214 44.9451 5.99863L47.7935 17.803C47.9578 18.3508 47.9852 18.4603 48.3413 18.4603C48.6151 18.4603 48.7247 18.3234 48.8342 17.803L51.1623 5.39609C51.217 5.1222 51.2992 5.04004 51.4909 5.04004H54.2298Z" fill="#008CD2"/>
<path d="M67.6227 6.08102C68.5539 6.84789 69.0195 8.29948 69.0195 10.4632C69.0195 12.6816 68.6635 13.9415 67.6227 14.7358C66.5546 15.5026 65.2125 15.7217 62.6928 15.7217H59.9814V21.4459C59.9814 21.7198 59.9266 21.802 59.6527 21.802H56.9139C56.6674 21.802 56.5852 21.7472 56.5852 21.4459V5.45109C56.5852 5.20459 56.64 5.1772 56.9139 5.14982C58.6667 4.98549 60.5839 4.90332 62.6654 4.90332C65.0756 4.90332 66.7189 5.28676 67.6227 6.08102ZM59.9814 7.86126V13.0924H62.3094C63.624 13.0924 64.5278 12.9281 64.9113 12.6268C65.3221 12.2982 65.5412 11.6135 65.5412 10.5179C65.5412 9.4224 65.3221 8.73769 64.8839 8.38165C64.4457 8.0256 63.5966 7.83388 62.282 7.83388H59.9814V7.86126Z" fill="#008CD2"/>
<path d="M85.9455 5.04004C86.1646 5.04004 86.2741 5.14959 86.2741 5.3687V7.69671C86.2741 7.91582 86.1646 8.02537 85.9455 8.02537H78.1672V12.1062H85.2607C85.5072 12.1062 85.6168 12.2158 85.6168 12.4349V14.6534C85.6168 14.8725 85.5072 14.982 85.2607 14.982H78.1672V18.8438H85.9455C86.1646 18.8438 86.2741 18.9533 86.2741 19.1724V21.5005C86.2741 21.7196 86.1646 21.8291 85.9455 21.8291H75.0997C74.8806 21.8291 74.771 21.7196 74.771 21.4731V5.39609C74.771 5.17698 74.8806 5.06743 75.0997 5.06743H85.9455V5.04004Z" fill="#2A327F"/>
<path d="M99.8313 6.08102C100.762 6.84789 101.228 8.29948 101.228 10.4632C101.228 12.0791 100.982 13.2842 100.489 14.0237C99.9956 14.7631 99.1466 15.2561 97.9141 15.5026L101.584 21.3363C101.748 21.5828 101.639 21.7746 101.338 21.7746H98.5988C98.1332 21.7746 97.9688 21.6376 97.7224 21.309L94.1619 15.7217H92.1625V21.4459C92.1625 21.7198 92.1077 21.802 91.8339 21.802H89.095C88.8485 21.802 88.7664 21.7472 88.7664 21.4459V5.45109C88.7664 5.20459 88.8211 5.1772 89.095 5.14982C90.8479 4.98549 92.7651 4.90332 94.8466 4.90332C97.2841 4.90332 98.9274 5.28676 99.8313 6.08102ZM92.1899 7.86126V13.0924H94.5179C95.8326 13.0924 96.7364 12.9281 97.1198 12.6268C97.5306 12.2982 97.7497 11.6135 97.7497 10.5179C97.7497 9.4224 97.5306 8.71031 97.0924 8.38165C96.6542 8.0256 95.8052 7.83388 94.4905 7.83388H92.1899V7.86126Z" fill="#2A327F"/>
<path d="M114.813 6.08102C115.744 6.84789 116.21 8.29948 116.21 10.4632C116.21 12.6816 115.854 13.9415 114.813 14.7358C113.745 15.5026 112.403 15.7217 109.883 15.7217H107.199V21.4459C107.199 21.7198 107.144 21.802 106.87 21.802H104.131C103.885 21.802 103.803 21.7472 103.803 21.4459V5.45109C103.803 5.20459 103.858 5.1772 104.131 5.14982C105.884 4.98549 107.774 4.90332 109.883 4.90332C112.266 4.90332 113.909 5.28676 114.813 6.08102ZM107.172 7.86126V13.0924H109.5C110.814 13.0924 111.718 12.9281 112.101 12.6268C112.512 12.2982 112.731 11.6135 112.731 10.5179C112.731 9.4224 112.512 8.71031 112.074 8.38165C111.636 8.0256 110.787 7.83388 109.472 7.83388H107.172V7.86126Z" fill="#2A327F"/>
<path d="M20.2133 19.8299L19.6108 20.0764C18.8987 20.3777 18.1318 20.6789 17.3923 20.9528C16.5433 21.2267 15.6942 21.4458 14.8178 21.5827C14.5165 21.6375 14.2153 21.6649 13.9414 21.6649C12.4076 21.6649 11.7229 20.8706 11.3943 20.1585C11.093 19.4464 11.093 18.6248 11.4216 17.9401C12.6815 15.3382 21.4184 12.1064 22.4318 11.7503C23.5273 11.3669 25.2802 10.8465 26.5126 10.4904C26.6496 8.35415 24.5133 5.86181 23.4178 5.36882C21.391 5.8892 15.1739 8.27199 11.6955 10.2166C11.0108 10.6 10.3261 11.0108 9.55924 11.5038C9.03886 11.8325 8.43632 12.2159 7.69683 12.2159C7.61467 12.2159 7.50511 12.2159 7.42295 12.1885C6.49174 12.079 5.6427 11.449 5.31404 10.6274C4.71149 9.09364 5.6427 8.13504 6.32741 7.45034C6.40958 7.36817 6.49174 7.28601 6.57391 7.20384L6.6013 7.17645C8.7102 5.28665 12.3255 2.65737 19.3095 1.3975C12.7089 -1.8891 4.68411 0.822347 1.3975 7.42295C-1.8891 14.0235 0.822347 22.0483 7.42295 25.3349C14.0235 28.6216 22.0483 25.9101 25.3349 19.3095C25.8006 18.3783 26.1566 17.3923 26.3757 16.3789C24.212 17.8579 21.9662 19.0904 20.2133 19.8299Z" fill="#00A0E3"/>
<path d="M12.572 18.4878C12.4076 18.8438 12.4076 19.2546 12.5446 19.6107C12.7089 19.9667 12.9828 20.3502 13.914 20.3502C14.1331 20.3502 14.3796 20.3228 14.5987 20.2954C15.393 20.1585 16.1872 19.9667 16.9541 19.7202C17.6662 19.4737 18.3783 19.1725 19.0904 18.8712L19.1452 18.8438L19.7203 18.5973C21.2267 17.9674 23.1439 16.9266 25.0337 15.6941C25.1706 14.9273 25.2528 14.1604 25.2528 13.3935C25.2528 12.9827 25.2254 12.5993 25.198 12.2158C24.3216 12.4897 23.4725 12.7362 22.87 12.9553C16.8719 15.119 13.0924 17.4196 12.572 18.4878Z" fill="#C3C4C6"/>
<path d="M7.23121 8.35423C6.43695 9.17588 6.21784 9.53193 6.46434 10.1619C6.60128 10.5453 7.03949 10.8466 7.50509 10.9014C7.53248 10.9014 7.58726 10.9014 7.61465 10.9014C7.9707 10.9014 8.32675 10.6549 8.76496 10.381C9.55923 9.88798 10.2713 9.44977 10.9834 9.06633C13.9414 7.42303 18.6248 5.53323 21.391 4.60202C20.6515 3.91731 19.8025 3.31477 18.9261 2.82178C12.6541 4.05425 9.36751 6.43704 7.42293 8.13512L7.23121 8.35423Z" fill="#C3C4C6"/>
</svg>
