<svg width="110" height="30" viewBox="0 0 110 30" fill="none" xmlns="http://www.w3.org/2000/svg">
<path d="M49.3888 12.7567L46.0646 23.4608C45.7882 24.3361 44.9784 24.9329 44.0605 24.9377C43.1368 24.9382 42.3213 24.3348 42.0517 23.4513L39.7248 15.7865C39.6678 15.6298 39.6155 15.4683 39.5728 15.3116C39.5301 15.1549 39.4778 14.9602 39.4351 14.7703C39.3876 14.9602 39.3401 15.1407 39.2926 15.3116C39.2451 15.4873 39.1929 15.6441 39.1406 15.7865L36.7662 23.456C36.4954 24.336 35.6828 24.9368 34.7621 24.9377C33.8463 24.9333 33.039 24.3355 32.7676 23.4608L29.5478 12.9277C29.3825 12.3861 29.4398 11.8009 29.7072 11.3018C29.9746 10.8026 30.43 10.4307 30.9725 10.2683C31.1758 10.2074 31.3871 10.177 31.5993 10.178C31.8621 10.1696 32.1215 10.239 32.3449 10.3775C32.5279 10.5102 32.6576 10.7039 32.7106 10.9236L34.7479 18.6169C34.8096 18.8591 34.8714 19.125 34.9331 19.41C34.9948 19.6949 35.0518 19.9988 35.1135 20.3075C35.2215 19.734 35.3707 19.169 35.5599 18.6169L37.9344 10.9141C38.015 10.7108 38.1517 10.5346 38.3286 10.406C38.5379 10.2533 38.7914 10.1732 39.0504 10.178H40.0619C40.3186 10.1638 40.5726 10.2357 40.7838 10.3822C40.9649 10.525 41.1071 10.7112 41.1969 10.9236L43.5714 18.6264C43.7661 19.1488 43.9139 19.6876 44.013 20.2363C44.07 19.9323 44.1223 19.6474 44.184 19.3815C44.2457 19.1155 44.298 18.8591 44.3597 18.6264L46.3875 10.9236C46.4551 10.7146 46.5905 10.5342 46.7722 10.4107C46.983 10.2581 47.2385 10.1796 47.4988 10.1875C48.0277 10.1925 48.5331 10.4075 48.9036 10.7851C49.2741 11.1627 49.4794 11.6721 49.4743 12.2011C49.4695 12.3892 49.4408 12.5759 49.3888 12.7567Z" fill="#1E0104"/>
<path fill-rule="evenodd" clip-rule="evenodd" d="M59.5523 10.5438C58.6825 10.2826 57.7771 10.1593 56.8691 10.1782H53.4119C52.9484 10.1782 52.5039 10.3623 52.1762 10.69C51.8484 11.0178 51.6643 11.4623 51.6643 11.9258V23.2282C51.6669 24.1732 52.4337 24.9378 53.3787 24.9378C54.3229 24.9378 55.0883 24.1724 55.0883 23.2282V19.9989H56.8691C57.7665 20.0163 58.6609 19.8913 59.519 19.6285C60.2012 19.4196 60.8321 19.0702 61.3711 18.6028C61.8529 18.1695 62.2241 17.6273 62.4539 17.0214C62.6992 16.3739 62.82 15.6859 62.81 14.9936C62.8145 14.3442 62.6969 13.6999 62.4634 13.094C62.2367 12.5051 61.8699 11.9802 61.3949 11.5648C60.8585 11.0999 60.2309 10.7521 59.5523 10.5438ZM58.7972 16.7839C58.2715 17.2558 57.5725 17.4865 56.8691 17.4203L55.0883 17.425V12.7283H56.8596C57.2394 12.7223 57.6177 12.7768 57.9804 12.8898C58.2735 12.985 58.5403 13.1477 58.7592 13.3647C58.9732 13.5599 59.1362 13.8044 59.2341 14.077C59.3391 14.3727 59.3905 14.6846 59.3861 14.9983C59.4244 15.6468 59.2137 16.2854 58.7972 16.7839Z" fill="#1E0104"/>
<path d="M81.5503 11.9001V23.3688C81.5503 24.2343 80.8487 24.9359 79.9832 24.9359H79.6793C78.8141 24.9333 78.1126 24.234 78.1074 23.3688V18.6958H72.1095V23.3688C72.1095 23.7844 71.9444 24.183 71.6505 24.4769C71.3566 24.7708 70.958 24.9359 70.5423 24.9359H70.2384C69.3732 24.9333 68.6717 24.234 68.6665 23.3688V11.9001C68.6691 10.9492 69.4394 10.1789 70.3904 10.1763C70.8471 10.1763 71.2851 10.358 71.6076 10.6815C71.9302 11.0049 72.1107 11.4434 72.1095 11.9001V16.3499H78.1074V11.9001C78.11 10.9492 78.8803 10.1789 79.8312 10.1763C80.288 10.1763 80.726 10.358 81.0485 10.6815C81.371 11.0049 81.5516 11.4434 81.5503 11.9001Z" fill="#1E0104"/>
<rect x="83.9719" y="14.4312" width="3.13904" height="10.5046" rx="1.56715" fill="#1E0104"/>
<path d="M98.302 16.7452L95.6426 23.6121C95.3275 24.4098 94.5579 24.9348 93.7003 24.9371C92.8435 24.9355 92.075 24.41 91.7627 23.6121L89.146 16.8687C88.9261 16.3193 88.9942 15.6964 89.3277 15.2075C89.6613 14.7187 90.2164 14.428 90.8082 14.4325C91.0071 14.4217 91.204 14.4768 91.3685 14.5892C91.5135 14.6805 91.6238 14.8175 91.682 14.9786L93.1494 19.6895C93.2776 20.0742 93.3916 20.4494 93.4866 20.815C93.5815 21.1807 93.6718 21.5416 93.7478 21.9073C93.9027 21.1548 94.109 20.4138 94.3651 19.6895L95.8848 14.9786C95.9392 14.8182 96.0464 14.681 96.1887 14.5892C96.3428 14.4813 96.5278 14.4263 96.7158 14.4325C97.2764 14.4324 97.8011 14.7087 98.1181 15.171C98.4352 15.6333 98.504 16.2222 98.302 16.7452Z" fill="#1E0104"/>
<path fill-rule="evenodd" clip-rule="evenodd" d="M103.259 22.1446C102.775 21.6268 102.49 20.9534 102.457 20.2451L108.526 20.2403C108.645 20.2443 108.764 20.2266 108.877 20.1881C108.971 20.1601 109.048 20.0947 109.091 20.0076C109.157 19.8994 109.196 19.7774 109.205 19.6514C109.229 19.4609 109.238 19.2688 109.234 19.0768C109.248 18.3835 109.13 17.6938 108.887 17.0443C108.682 16.4775 108.358 15.9611 107.937 15.5294C107.515 15.1077 107.006 14.7835 106.446 14.5796C105.838 14.3552 105.194 14.2441 104.546 14.2519C103.805 14.2425 103.07 14.3847 102.386 14.6698C101.154 15.1885 100.19 16.1916 99.7215 17.4432C99.4808 18.0822 99.3585 18.7597 99.3606 19.4425C99.3461 20.2786 99.4895 21.11 99.7833 21.8929C100.04 22.5526 100.429 23.1523 100.928 23.6548C101.409 24.1269 101.985 24.4912 102.618 24.7233C103.281 24.9687 103.983 25.091 104.689 25.0842C105.067 25.0827 105.444 25.0573 105.819 25.0082C106.223 24.9548 106.62 24.8625 107.006 24.7328C107.411 24.5965 107.798 24.4132 108.16 24.1867L108.265 24.1059C108.522 23.8931 108.684 23.5864 108.714 23.2538C108.744 22.9213 108.641 22.5905 108.426 22.3346L108.284 22.1589C108.154 21.9757 107.938 21.8732 107.714 21.8882C107.526 21.8887 107.34 21.9343 107.173 22.0212L106.603 22.3108C106.378 22.4303 106.143 22.5289 105.9 22.6053C105.593 22.7015 105.272 22.7465 104.95 22.7382C104.331 22.7662 103.725 22.5535 103.259 22.1446ZM106.313 17.6949C106.378 17.9315 106.41 18.176 106.408 18.4215L102.5 18.4357C102.569 17.8885 102.802 17.3752 103.169 16.9635C103.546 16.6099 104.05 16.4247 104.565 16.4507C104.861 16.4431 105.155 16.5015 105.425 16.6216C105.648 16.7207 105.845 16.8703 106 17.0585C106.147 17.2468 106.254 17.4634 106.313 17.6949Z" fill="#1E0104"/>
<path d="M83.708 12.8213C83.708 12.8213 87.3837 12.9733 88.4569 12.071C89.2215 11.4156 89.6062 9.80574 88.7134 7.5595C88.5899 7.3173 86.2439 7.49301 83.708 12.8213Z" fill="url(#paint0_linear_1_3226)"/>
<path d="M2.55811 26.3623C2.55811 27.9152 6.83214 29.1737 12.1129 29.1737C17.3938 29.1737 21.6773 27.9105 21.6773 26.3528C21.6183 25.8712 21.3249 25.4498 20.8937 25.2273C20.8613 25.2022 20.8206 25.1903 20.7797 25.1941C20.752 25.1847 20.722 25.1847 20.6943 25.1941C19.0226 26.0536 15.8599 26.6187 12.1462 26.6187C8.43253 26.6187 5.25075 26.0394 3.59812 25.1941H3.4889C3.45362 25.1939 3.41902 25.2038 3.38917 25.2226C2.93805 25.4385 2.62574 25.8668 2.55811 26.3623Z" fill="#1E0104"/>
<path d="M24.2195 20.4198C24.2195 19.9117 23.8634 19.4321 23.2175 18.9951C23.179 18.9629 23.13 18.946 23.0798 18.9477C23.0408 18.947 23.0026 18.9586 22.9706 18.9809C20.8383 20.0684 16.8444 20.8045 12.162 20.8045C7.47956 20.8045 3.43822 20.0589 1.30596 18.9524C1.27016 18.9429 1.23252 18.9429 1.19673 18.9524C1.14921 18.9479 1.10174 18.9615 1.06376 18.9904C0.379914 19.4131 0 19.8927 0 20.4198C0 22.3954 5.42803 23.9958 12.1145 23.9958C18.801 23.9958 24.2195 22.4001 24.2195 20.4198Z" fill="#1E0104"/>
<path d="M21.2716 8.02076L17.1353 5.6463L16.6984 5.38986C16.8731 4.74971 17.1437 4.13969 17.501 3.58052C17.5882 3.45523 17.6996 3.34866 17.8287 3.26709C17.9571 3.17675 18.1328 3.19719 18.2371 3.31458C18.51 3.52903 18.821 3.69013 19.1536 3.78947C19.5054 3.88814 19.8832 3.80438 20.1604 3.56627C20.5415 3.2776 20.8236 2.87769 20.9677 2.42178C21.2431 1.51948 21.0057 0.522205 20.0179 0.161287C19.4998 -0.0388571 18.9147 0.0457465 18.4745 0.384486C17.9643 0.741486 17.5394 1.20692 17.2303 1.74743C16.9264 2.25082 16.6129 2.74945 16.347 3.27183C16.1757 3.65067 16.0267 4.03915 15.9006 4.43532C15.8531 4.57304 15.8151 4.70601 15.7724 4.84373L14.3192 4.00317C12.9586 3.21763 11.2823 3.21763 9.92169 4.00317L8.49701 4.83898C8.45427 4.69176 8.41153 4.54455 8.35929 4.40208C8.23742 4.00445 8.08826 3.6157 7.9129 3.23859C7.6517 2.71146 7.33353 2.21282 7.03434 1.70944C6.71499 1.16895 6.28243 0.703992 5.76638 0.346495C5.32647 -0.00388191 4.73426 -0.0959636 4.20873 0.1043C3.23045 0.474716 2.99301 1.46249 3.27319 2.37429C3.41253 2.83252 3.69558 3.23378 4.08051 3.51878C4.35578 3.75685 4.73224 3.84071 5.08253 3.74198C5.41713 3.64757 5.72898 3.48598 5.99908 3.26709C6.10563 3.15323 6.27967 3.13501 6.40749 3.22435C6.53675 3.30538 6.64954 3.41011 6.73991 3.53303C7.09499 4.09447 7.36391 4.70596 7.53773 5.34712V5.39935L7.01535 5.69854L2.96926 8.02076C1.60865 8.80178 0.769873 10.2511 0.770508 11.8199V16.4786C4.44682 17.6096 8.27415 18.1733 12.1204 18.1502C15.9667 18.1733 19.7941 17.6096 23.4704 16.4786V11.8294C23.4725 10.2577 22.6337 8.80491 21.2716 8.02076Z" fill="url(#paint1_linear_1_3226)"/>
<defs>
<linearGradient id="paint0_linear_1_3226" x1="83.708" y1="12.8195" x2="89.2073" y2="12.8195" gradientUnits="userSpaceOnUse">
<stop stop-color="#F98052"/>
<stop offset="0.26" stop-color="#FA8A47"/>
<stop offset="0.7" stop-color="#FBA62B"/>
<stop offset="0.84" stop-color="#FCB020"/>
</linearGradient>
<linearGradient id="paint1_linear_1_3226" x1="27.8566" y1="13.8004" x2="20.8012" y2="-6.54224" gradientUnits="userSpaceOnUse">
<stop stop-color="#FF7039"/>
<stop offset="0.21" stop-color="#FF7B35"/>
<stop offset="0.58" stop-color="#FF972A"/>
<stop offset="0.84" stop-color="#FFB020"/>
</linearGradient>
</defs>
</svg>
