<svg width="115" height="27" viewBox="0 0 115 27" fill="none" xmlns="http://www.w3.org/2000/svg">
<path d="M20.1075 13.3164V17.3379C20.1075 19.6522 18.2485 21.5112 15.9343 21.5112C13.62 21.5112 11.761 19.6522 11.761 17.3379V13.3164H7.17041V17.3379C7.17041 22.194 11.1161 26.1017 15.9343 26.1017C20.7904 26.1017 24.698 22.1561 24.698 17.3379V13.3164H20.1075Z" fill="#23B89A"/>
<path d="M11.761 0H0L1.40371 4.59058H11.761V0Z" fill="#94A4A4"/>
<path d="M27.5055 0H20.1074V4.59058H27.5055C28.1504 4.59058 28.6436 5.12172 28.6436 5.72874C28.6436 6.37369 28.1125 6.8669 27.5055 6.8669H20.1074V11.4575H27.5055C30.6544 11.4575 33.2341 8.87764 33.2341 5.72874C33.2341 2.57983 30.6923 0 27.5055 0Z" fill="#94A4A4"/>
<path d="M11.761 6.90479H2.31421L3.68004 11.4954H11.761V6.90479Z" fill="#94A4A4"/>
<path d="M52.1276 12.5956H48.2579L47.0818 7.32212C47.0438 7.09449 46.93 6.67716 46.8162 5.99427C46.7024 5.34931 46.6265 4.78022 46.5507 4.3629C46.5127 4.70435 46.4368 5.15961 46.323 5.69075C46.2092 6.22189 46.1333 6.7151 46.0195 7.17037C45.9056 7.62563 45.5263 9.40874 44.8054 12.5956H40.9357L37.9386 0.493164H41.0874L42.4153 6.56335C42.7188 7.8912 42.9085 8.95348 43.0223 9.75019C43.0982 9.18111 43.212 8.42234 43.4017 7.47387C43.5914 6.5254 43.7431 5.69076 43.9328 5.08374L44.9951 0.493164H48.0302L49.0545 5.08374C49.2442 5.80457 49.396 6.67716 49.5857 7.62562C49.7754 8.57409 49.8893 9.29493 49.9651 9.78813C50.041 9.18111 50.2307 8.11883 50.5342 6.60129L51.8621 0.531105H55.011L52.1276 12.5956Z" fill="#23B89A"/>
<path d="M65.4442 4.36255C65.4442 5.72835 65.0268 6.7527 64.2301 7.51147C63.4333 8.2323 62.2952 8.61169 60.8156 8.61169H59.9051V12.6332H56.6423V0.530762H60.8156C62.3331 0.530762 63.5093 0.8722 64.268 1.51716C65.0647 2.16211 65.4442 3.11058 65.4442 4.36255ZM59.9051 5.91804H60.5121C61.0054 5.91804 61.3847 5.76628 61.6882 5.50071C61.9917 5.23514 62.1056 4.85576 62.1056 4.36255C62.1056 3.5279 61.6503 3.14853 60.7397 3.14853H59.9051V5.91804Z" fill="#23B89A"/>
<path d="M82.0611 0.493019V7.77723C82.0611 9.37065 81.6058 10.5847 80.7333 11.4573C79.8227 12.3299 78.5328 12.7472 76.8635 12.7472C75.2322 12.7472 73.9423 12.3299 73.0697 11.4952C72.1971 10.6606 71.7418 9.44653 71.7418 7.85311V0.493019H75.0425V7.58754C75.0425 8.46012 75.1942 9.06715 75.5357 9.44654C75.8392 9.82592 76.3324 10.0156 76.9394 10.0156C77.6223 10.0156 78.0776 9.82592 78.3811 9.44654C78.6846 9.06715 78.8363 8.4222 78.8363 7.54961V0.455078H82.0611V0.493019Z" fill="#23B89A"/>
<path d="M92.4943 8.91543C92.4943 9.6742 92.3046 10.3192 91.9252 10.9262C91.5458 11.4953 91.0148 11.9505 90.2939 12.292C89.5731 12.6334 88.7384 12.7852 87.752 12.7852C86.9553 12.7852 86.2724 12.7472 85.7413 12.6334C85.2102 12.5196 84.6411 12.3299 84.0341 12.0264V9.10512C84.6411 9.40863 85.3239 9.6742 85.9689 9.8639C86.6138 10.0536 87.2588 10.1295 87.8279 10.1295C88.3211 10.1295 88.6625 10.0536 88.8901 9.8639C89.1178 9.71214 89.2316 9.48452 89.2316 9.21895C89.2316 9.06719 89.1936 8.91544 89.0798 8.80162C88.966 8.6878 88.8522 8.53605 88.6246 8.42223C88.4349 8.30842 87.9038 8.04285 87.0312 7.66346C86.2345 7.32201 85.6654 6.94262 85.2481 6.63911C84.8687 6.29767 84.5652 5.91829 84.3755 5.46302C84.1858 5.0457 84.0719 4.51456 84.0719 3.90754C84.0719 2.80732 84.4892 1.93473 85.286 1.28977C86.0827 0.682756 87.2208 0.341309 88.6246 0.341309C89.8766 0.341309 91.1665 0.644813 92.4564 1.21389L91.47 3.75579C90.3318 3.22464 89.3454 2.99701 88.5487 2.99701C88.1314 2.99701 87.8279 3.07288 87.6382 3.22464C87.4485 3.37639 87.3347 3.56608 87.3347 3.79372C87.3347 4.02135 87.4485 4.24898 87.7141 4.43868C87.9417 4.62837 88.6246 4.96982 89.7249 5.46302C90.7492 5.91829 91.5079 6.44943 91.8873 6.98057C92.3047 7.43583 92.4943 8.11872 92.4943 8.91543Z" fill="#23B89A"/>
<path d="M101.562 12.5956H94.3912V0.493164H101.562V3.11093H97.654V5.00786H101.296V7.62562H97.654V9.90194H101.562V12.5956Z" fill="#23B89A"/>
<path d="M106.949 8.1947V12.5956H103.686V0.493164H107.632C110.932 0.493164 112.564 1.66926 112.564 4.05939C112.564 5.46312 111.881 6.52541 110.515 7.32212L114.043 12.5956H110.325L107.746 8.1947H106.949ZM106.949 5.72869H107.556C108.694 5.72869 109.263 5.23549 109.263 4.21115C109.263 3.3765 108.694 2.95918 107.594 2.95918H106.949V5.72869Z" fill="#23B89A"/>
<path d="M40.3667 25.9882H38.28V15.8965H44.0467V17.6417H40.3667V20.2594H43.7811V22.0046H40.3667V25.9882Z" fill="#94A4A4"/>
<path d="M48.1441 22.0803V25.9501H46.0195V15.8584H48.9409C50.3067 15.8584 51.331 16.124 51.976 16.6172C52.6209 17.1104 52.9623 17.8691 52.9623 18.8935C52.9623 19.5005 52.8105 20.0316 52.4691 20.4869C52.1277 20.9422 51.6724 21.3216 51.0654 21.5871C52.5829 23.8635 53.5694 25.3051 54.0246 25.988H51.6345L49.2443 22.1183H48.1441V22.0803ZM48.1441 20.3731H48.827C49.5099 20.3731 50.0031 20.2593 50.3066 20.0316C50.6101 19.804 50.7998 19.4626 50.7998 18.9694C50.7998 18.4762 50.6481 18.1347 50.3066 17.945C49.9652 17.7553 49.472 17.6415 48.7891 17.6415H48.1441V20.3731Z" fill="#94A4A4"/>
<path d="M64.4957 20.9041C64.4957 22.5734 64.0784 23.8633 63.2437 24.7359C62.4091 25.6465 61.2329 26.0638 59.6774 26.0638C58.122 26.0638 56.9459 25.6085 56.1112 24.7359C55.2766 23.8254 54.8593 22.5355 54.8593 20.8662C54.8593 19.1969 55.2766 17.907 56.1112 17.0344C56.9459 16.1618 58.122 15.7065 59.6774 15.7065C61.2329 15.7065 62.4091 16.1618 63.2437 17.0344C64.0784 17.9449 64.4957 19.2348 64.4957 20.9041ZM57.1356 20.9041C57.1356 22.0423 57.3632 22.8769 57.7805 23.446C58.1978 24.0151 58.8428 24.3186 59.7154 24.3186C61.4227 24.3186 62.2573 23.1804 62.2573 20.9041C62.2573 18.6278 61.4227 17.4897 59.7154 17.4897C58.8808 17.4897 58.2358 17.7932 57.7805 18.3622C57.3632 18.9313 57.1356 19.766 57.1356 20.9041Z" fill="#94A4A4"/>
<path d="M75.5357 25.9882H72.8042L68.4033 18.3625H68.3274C68.4033 19.7283 68.4412 20.6767 68.4412 21.2458V25.9882H66.5443V15.8965H69.238L73.6009 23.4463H73.6388C73.5629 22.1184 73.525 21.2079 73.525 20.6767V15.8965H75.4599V25.9882H75.5357Z" fill="#94A4A4"/>
<path d="M81.9475 25.9882H79.8229V17.6796H77.0913V15.8965H84.7169V17.6796H81.9854V25.9882H81.9475Z" fill="#94A4A4"/>
<path d="M92.0771 25.9882H86.2725V15.8965H92.0771V17.6417H88.3971V19.8421H91.8115V21.5873H88.3971V24.205H92.0771V25.9882Z" fill="#94A4A4"/>
<path d="M103.117 25.9882H100.386L95.9848 18.3625H95.9088C95.9847 19.7283 96.0227 20.6767 96.0227 21.2458V25.9882H94.1257V15.8965H96.8194L101.182 23.4463H101.22C101.144 22.1184 101.106 21.2079 101.106 20.6767V15.8965H103.041V25.9882H103.117Z" fill="#94A4A4"/>
<path d="M114.044 20.8285C114.044 22.4978 113.588 23.7498 112.64 24.6603C111.691 25.5329 110.326 25.9882 108.542 25.9882H105.697V15.8965H108.846C110.477 15.8965 111.767 16.3138 112.678 17.1864C113.588 18.059 114.044 19.273 114.044 20.8285ZM111.805 20.8664C111.805 18.7039 110.857 17.6037 108.922 17.6037H107.784V24.1671H108.694C110.781 24.205 111.805 23.1048 111.805 20.8664Z" fill="#94A4A4"/>
</svg>
